<?xml version="1.0" encoding="UTF-8"?>
<svg width="183px" height="24px" viewBox="0 0 183 24" version="1.1" xmlns="http://www.w3.org/2000/svg" xmlns:xlink="http://www.w3.org/1999/xlink">
    <!-- Generator: sketchtool 51.2 (57519) - http://www.bohemiancoding.com/sketch -->
    <title>240F259F-E6BE-44F0-A495-1B1E240AE73E</title>
    <desc>Created with sketchtool.</desc>
    <defs></defs>
    <g id="mockups" stroke="none" stroke-width="1" fill="none" fill-rule="evenodd">
        <g id="3_Friends" transform="translate(-629.000000, -356.000000)" fill="#FFFFFF">
            <g id="content" transform="translate(90.000000, 167.000000)">
                <g id="datarockets" transform="translate(465.000000, 129.000000)">
                    <path d="M90.9121333,83.5384615 L87.3447302,83.5384615 L87.3447302,81.2307692 L87.2786671,81.2307692 C86.7721815,82.2197852 86.0344851,82.9285693 85.065556,83.3571429 C84.0966268,83.7857164 83.0726602,84 81.9936255,84 C80.6503374,84 79.4777305,83.7637386 78.4757696,83.2912088 C77.4738088,82.818679 76.6425241,82.1758282 75.9818906,81.3626374 C75.3212571,80.5494465 74.8257894,79.5879176 74.4954727,78.478022 C74.1651559,77.3681263 74,76.1758305 74,74.9010989 C74,73.3626297 74.2091975,72.0329726 74.6275987,70.9120879 C75.0459999,69.7912032 75.6020248,68.8681355 76.29569,68.1428571 C76.9893552,67.4175788 77.7821035,66.8846171 78.6739587,66.543956 C79.5658139,66.203295 80.4741714,66.032967 81.3990583,66.032967 C81.9275651,66.032967 82.4670744,66.0824171 83.0176023,66.1813187 C83.5681302,66.2802203 84.0966291,66.4395593 84.6031148,66.6593407 C85.1096005,66.879122 85.5775422,67.159339 86.006954,67.5 C86.4363658,67.840661 86.7942036,68.2417559 87.0804781,68.7032967 L87.1465411,68.7032967 L87.1465411,60 L90.9121333,60 L90.9121333,83.5384615 Z M77.7655922,75.1978022 C77.7655922,75.9230805 77.8591805,76.6373591 78.04636,77.3406593 C78.2335395,78.0439596 78.5198097,78.6703269 78.9051793,79.2197802 C79.2905488,79.7692335 79.7805113,80.2087896 80.3750815,80.5384615 C80.9696516,80.8681335 81.6743168,81.032967 82.4890982,81.032967 C83.3259006,81.032967 84.0470814,80.8571446 84.6526621,80.5054945 C85.2582428,80.1538444 85.7537105,79.6923105 86.13908,79.1208791 C86.5244496,78.5494477 86.8107198,77.906597 86.9978993,77.1923077 C87.1850788,76.4780184 87.2786671,75.7472565 87.2786671,75 C87.2786671,73.1098807 86.854767,71.6373679 86.006954,70.5824176 C85.159141,69.5274673 84.0085549,69 82.5551612,69 C81.6743165,69 80.9311149,69.1813169 80.3255342,69.543956 C79.7199535,69.9065952 79.2244858,70.379118 78.8391163,70.9615385 C78.4537467,71.543959 78.1784869,72.203293 78.0133285,72.9395604 C77.8481701,73.6758279 77.7655922,74.4285676 77.7655922,75.1978022 Z M109.641,79.7472527 C109.641,80.2087935 109.701557,80.5384605 109.822673,80.7362637 C109.943789,80.9340669 110.180513,81.032967 110.53285,81.032967 L110.929229,81.032967 C111.083376,81.032967 111.259543,81.0109892 111.457733,80.967033 L111.457733,83.5714286 C111.325606,83.6153848 111.154945,83.6648349 110.945744,83.7197802 C110.736544,83.7747255 110.521841,83.8241756 110.30163,83.8681319 C110.081419,83.9120881 109.861211,83.9450548 109.641,83.967033 C109.420788,83.9890111 109.233612,84 109.079464,84 C108.308725,84 107.670122,83.8461554 107.163636,83.5384615 C106.657151,83.2307677 106.326839,82.6923115 106.172691,81.9230769 C105.423973,82.6483553 104.504605,83.1758225 103.41456,83.5054945 C102.324515,83.8351665 101.273022,84 100.260051,84 C99.4893116,84 98.7516153,83.8956054 98.0469395,83.6868132 C97.3422638,83.4780209 96.7201765,83.1703317 96.1806592,82.7637363 C95.6411418,82.3571408 95.2117365,81.8406625 94.8924303,81.2142857 C94.5731241,80.587909 94.4134734,79.857147 94.4134734,79.021978 C94.4134734,77.9670277 94.6061553,77.1098934 94.9915248,76.4505495 C95.3768944,75.7912055 95.8833724,75.2747271 96.5109743,74.9010989 C97.1385761,74.5274707 97.8432413,74.2582426 98.6249909,74.0934066 C99.4067406,73.9285706 100.193984,73.8021982 100.986744,73.7142857 C101.669399,73.5824169 102.319012,73.4890113 102.935603,73.4340659 C103.552194,73.3791206 104.097209,73.2857149 104.570663,73.1538462 C105.044117,73.0219774 105.41847,72.8186827 105.693734,72.543956 C105.968998,72.2692294 106.106628,71.8571456 106.106628,71.3076923 C106.106628,70.8241734 105.991019,70.428573 105.759797,70.1208791 C105.528575,69.8131853 105.242305,69.5769239 104.900978,69.4120879 C104.559651,69.2472519 104.179792,69.1373629 103.761391,69.0824176 C103.34299,69.0274723 102.946615,69 102.572256,69 C101.515243,69 100.645422,69.219778 99.9627671,69.6593407 C99.2801125,70.0989033 98.8947487,70.7802152 98.8066643,71.7032967 L95.0410721,71.7032967 C95.1071354,70.6043901 95.3713849,69.6923113 95.8338283,68.967033 C96.2962718,68.2417546 96.8853278,67.6593429 97.6010141,67.2197802 C98.3167004,66.7802176 99.1259643,66.4725284 100.02883,66.2967033 C100.931696,66.1208782 101.856569,66.032967 102.803477,66.032967 C103.640279,66.032967 104.466059,66.1208782 105.28084,66.2967033 C106.095622,66.4725284 106.827813,66.7582398 107.477436,67.1538462 C108.127059,67.5494525 108.650052,68.0604364 109.046432,68.6868132 C109.442813,69.3131899 109.641,70.0769186 109.641,70.978022 L109.641,79.7472527 Z M105.875407,75 C105.302858,75.3736282 104.598193,75.5989007 103.761391,75.6758242 C102.924588,75.7527476 102.087798,75.8681311 101.250996,76.021978 C100.854616,76.0879124 100.469252,76.1813181 100.094893,76.3021978 C99.7205342,76.4230775 99.3902224,76.587911 99.1039478,76.7967033 C98.8176733,77.0054955 98.5919603,77.2802181 98.4268019,77.6208791 C98.2616435,77.9615402 98.1790656,78.373624 98.1790656,78.8571429 C98.1790656,79.2747274 98.3001799,79.6263722 98.5424122,79.9120879 C98.7846445,80.1978036 99.0764199,80.4230761 99.4177472,80.5879121 C99.7590745,80.7527481 100.133428,80.8681315 100.540819,80.9340659 C100.948209,81.0000003 101.317057,81.032967 101.647374,81.032967 C102.065775,81.032967 102.517201,80.9780225 103.001666,80.8681319 C103.486131,80.7582412 103.943062,80.5714299 104.372474,80.3076923 C104.801886,80.0439547 105.159723,79.7087932 105.445998,79.3021978 C105.732272,78.8956024 105.875407,78.3956074 105.875407,77.8021978 L105.875407,75 Z M112.316552,66.4945055 L115.157262,66.4945055 L115.157262,61.3846154 L118.922854,61.3846154 L118.922854,66.4945055 L122.3251,66.4945055 L122.3251,69.2967033 L118.922854,69.2967033 L118.922854,78.3956044 C118.922854,78.7912108 118.93937,79.1318667 118.972401,79.4175824 C119.005433,79.7032981 119.082506,79.945054 119.203622,80.1428571 C119.324738,80.3406603 119.50641,80.4890105 119.748642,80.5879121 C119.990874,80.6868137 120.321186,80.7362637 120.739587,80.7362637 C121.003841,80.7362637 121.26809,80.7307693 121.532343,80.7197802 C121.796597,80.7087912 122.060846,80.67033 122.3251,80.6043956 L122.3251,83.5054945 C121.906698,83.5494508 121.499314,83.5934064 121.102934,83.6373626 C120.706554,83.6813189 120.299169,83.7032967 119.880768,83.7032967 C118.889818,83.7032967 118.091564,83.609891 117.485983,83.4230769 C116.880403,83.2362628 116.406956,82.9615403 116.065628,82.5989011 C115.724301,82.2362619 115.493083,81.7802225 115.371967,81.2307692 C115.250851,80.6813159 115.179283,80.0549486 115.157262,79.3516484 L115.157262,69.2967033 L112.316552,69.2967033 L112.316552,66.4945055 Z M139.666643,79.7472527 C139.666643,80.2087935 139.7272,80.5384605 139.848316,80.7362637 C139.969432,80.9340669 140.206155,81.032967 140.558493,81.032967 L140.954871,81.032967 C141.109019,81.032967 141.285186,81.0109892 141.483376,80.967033 L141.483376,83.5714286 C141.351249,83.6153848 141.180588,83.6648349 140.971387,83.7197802 C140.762187,83.7747255 140.547484,83.8241756 140.327273,83.8681319 C140.107062,83.9120881 139.886854,83.9450548 139.666643,83.967033 C139.446431,83.9890111 139.259255,84 139.105107,84 C138.334368,84 137.695765,83.8461554 137.189279,83.5384615 C136.682794,83.2307677 136.352482,82.6923115 136.198334,81.9230769 C135.449616,82.6483553 134.530248,83.1758225 133.440203,83.5054945 C132.350158,83.8351665 131.298665,84 130.285694,84 C129.514954,84 128.777258,83.8956054 128.072582,83.6868132 C127.367907,83.4780209 126.745819,83.1703317 126.206302,82.7637363 C125.666785,82.3571408 125.237379,81.8406625 124.918073,81.2142857 C124.598767,80.587909 124.439116,79.857147 124.439116,79.021978 C124.439116,77.9670277 124.631798,77.1098934 125.017168,76.4505495 C125.402537,75.7912055 125.909015,75.2747271 126.536617,74.9010989 C127.164219,74.5274707 127.868884,74.2582426 128.650634,74.0934066 C129.432383,73.9285706 130.219627,73.8021982 131.012387,73.7142857 C131.695041,73.5824169 132.344655,73.4890113 132.961246,73.4340659 C133.577837,73.3791206 134.122852,73.2857149 134.596306,73.1538462 C135.06976,73.0219774 135.444113,72.8186827 135.719377,72.543956 C135.994641,72.2692294 136.132271,71.8571456 136.132271,71.3076923 C136.132271,70.8241734 136.016662,70.428573 135.78544,70.1208791 C135.554218,69.8131853 135.267948,69.5769239 134.926621,69.4120879 C134.585293,69.2472519 134.205435,69.1373629 133.787034,69.0824176 C133.368632,69.0274723 132.972258,69 132.597899,69 C131.540886,69 130.671065,69.219778 129.98841,69.6593407 C129.305755,70.0989033 128.920392,70.7802152 128.832307,71.7032967 L125.066715,71.7032967 C125.132778,70.6043901 125.397028,69.6923113 125.859471,68.967033 C126.321915,68.2417546 126.910971,67.6593429 127.626657,67.2197802 C128.342343,66.7802176 129.151607,66.4725284 130.054473,66.2967033 C130.957339,66.1208782 131.882212,66.032967 132.82912,66.032967 C133.665922,66.032967 134.491702,66.1208782 135.306483,66.2967033 C136.121264,66.4725284 136.853456,66.7582398 137.503079,67.1538462 C138.152702,67.5494525 138.675695,68.0604364 139.072075,68.6868132 C139.468455,69.3131899 139.666643,70.0769186 139.666643,70.978022 L139.666643,79.7472527 Z M135.90105,75 C135.328501,75.3736282 134.623836,75.5989007 133.787034,75.6758242 C132.950231,75.7527476 132.113441,75.8681311 131.276639,76.021978 C130.880259,76.0879124 130.494895,76.1813181 130.120536,76.3021978 C129.746177,76.4230775 129.415865,76.587911 129.129591,76.7967033 C128.843316,77.0054955 128.617603,77.2802181 128.452445,77.6208791 C128.287286,77.9615402 128.204708,78.373624 128.204708,78.8571429 C128.204708,79.2747274 128.325823,79.6263722 128.568055,79.9120879 C128.810287,80.1978036 129.102063,80.4230761 129.44339,80.5879121 C129.784717,80.7527481 130.159071,80.8681315 130.566461,80.9340659 C130.973852,81.0000003 131.3427,81.032967 131.673017,81.032967 C132.091418,81.032967 132.542844,80.9780225 133.027309,80.8681319 C133.511774,80.7582412 133.968705,80.5714299 134.398117,80.3076923 C134.827528,80.0439547 135.185366,79.7087932 135.471641,79.3021978 C135.757915,78.8956024 135.90105,78.3956074 135.90105,77.8021978 L135.90105,75 Z M144.059833,66.4945055 L147.594205,66.4945055 L147.594205,69.7912088 L147.660268,69.7912088 C147.770374,69.329668 147.985076,68.8791231 148.304382,68.4395604 C148.623689,67.9999978 149.009052,67.5989029 149.460485,67.2362637 C149.911918,66.8736246 150.412891,66.5824187 150.963419,66.3626374 C151.513947,66.142856 152.075477,66.032967 152.648026,66.032967 C153.088448,66.032967 153.391234,66.0439559 153.556393,66.0659341 C153.721551,66.0879122 153.892212,66.10989 154.068381,66.1318681 L154.068381,69.7582418 C153.804128,69.7142855 153.534373,69.6758243 153.259109,69.6428571 C152.983845,69.6098899 152.71409,69.5934066 152.449837,69.5934066 C151.811225,69.5934066 151.211158,69.719779 150.64962,69.9725275 C150.088081,70.225276 149.598119,70.5988986 149.179717,71.0934066 C148.761316,71.5879146 148.431004,72.1977986 148.188772,72.9230769 C147.94654,73.6483553 147.825426,74.4835118 147.825426,75.4285714 L147.825426,83.5384615 L144.059833,83.5384615 L144.059833,66.4945055 Z M163.251141,84 C161.885832,84 160.669183,83.7747275 159.601159,83.3241758 C158.533135,82.8736241 157.630283,82.2527512 156.892575,81.4615385 C156.154868,80.6703257 155.593338,79.7252802 155.207968,78.6263736 C154.822599,77.527467 154.629917,76.3186879 154.629917,75 C154.629917,73.7032902 154.822599,72.5055 155.207968,71.4065934 C155.593338,70.3076868 156.154868,69.3626413 156.892575,68.5714286 C157.630283,67.7802158 158.533135,67.1593429 159.601159,66.7087912 C160.669183,66.2582395 161.885832,66.032967 163.251141,66.032967 C164.61645,66.032967 165.833099,66.2582395 166.901123,66.7087912 C167.969147,67.1593429 168.871999,67.7802158 169.609707,68.5714286 C170.347414,69.3626413 170.908944,70.3076868 171.294314,71.4065934 C171.679683,72.5055 171.872365,73.7032902 171.872365,75 C171.872365,76.3186879 171.679683,77.527467 171.294314,78.6263736 C170.908944,79.7252802 170.347414,80.6703257 169.609707,81.4615385 C168.871999,82.2527512 167.969147,82.8736241 166.901123,83.3241758 C165.833099,83.7747275 164.61645,84 163.251141,84 Z M163.251141,81.032967 C164.087943,81.032967 164.814629,80.8571446 165.431221,80.5054945 C166.047812,80.1538444 166.55429,79.6923105 166.95067,79.1208791 C167.34705,78.5494477 167.638826,77.906597 167.826005,77.1923077 C168.013185,76.4780184 168.106773,75.7472565 168.106773,75 C168.106773,74.2747216 168.013185,73.5494542 167.826005,72.8241758 C167.638826,72.0988975 167.34705,71.4560468 166.95067,70.8956044 C166.55429,70.335162 166.047812,69.8791226 165.431221,69.5274725 C164.814629,69.1758224 164.087943,69 163.251141,69 C162.414338,69 161.687652,69.1758224 161.071061,69.5274725 C160.45447,69.8791226 159.947992,70.335162 159.551612,70.8956044 C159.155232,71.4560468 158.863456,72.0988975 158.676277,72.8241758 C158.489097,73.5494542 158.395509,74.2747216 158.395509,75 C158.395509,75.7472565 158.489097,76.4780184 158.676277,77.1923077 C158.863456,77.906597 159.155232,78.5494477 159.551612,79.1208791 C159.947992,79.6923105 160.45447,80.1538444 161.071061,80.5054945 C161.687652,80.8571446 162.414338,81.032967 163.251141,81.032967 Z M186.868671,72.1978022 C186.714523,71.1428519 186.290623,70.3461565 185.596958,69.8076923 C184.903292,69.2692281 184.027966,69 182.970953,69 C182.486488,69 181.968999,69.0824168 181.418472,69.2472527 C180.867944,69.4120887 180.361466,69.719778 179.899022,70.1703297 C179.436579,70.6208814 179.051215,71.2472487 178.742919,72.0494505 C178.434624,72.8516524 178.280478,73.9010924 178.280478,75.1978022 C178.280478,75.9011024 178.363056,76.6043921 178.528214,77.3076923 C178.693373,78.0109925 178.957622,78.6373599 179.320971,79.1868132 C179.684319,79.7362665 180.152261,80.181317 180.72481,80.521978 C181.297359,80.8626391 181.991014,81.032967 182.805795,81.032967 C183.906851,81.032967 184.815208,80.6923111 185.530895,80.010989 C186.246581,79.3296669 186.692502,78.3736325 186.868671,77.1428571 L190.634263,77.1428571 C190.281925,79.3626485 189.43963,81.0604337 188.107352,82.2362637 C186.775075,83.4120938 185.007907,84 182.805795,84 C181.462507,84 180.27889,83.7747275 179.254908,83.3241758 C178.230926,82.8736241 177.36661,82.2582457 176.661934,81.478022 C175.957258,80.6977983 175.423254,79.7692362 175.059906,78.6923077 C174.696557,77.6153792 174.514886,76.4505557 174.514886,75.1978022 C174.514886,73.9230705 174.691052,72.7252803 175.04339,71.6043956 C175.395728,70.4835109 175.924227,69.5109931 176.628903,68.6868132 C177.333578,67.8626332 178.208905,67.2142881 179.254908,66.7417582 C180.300911,66.2692284 181.52857,66.032967 182.937921,66.032967 C183.928871,66.032967 184.87026,66.1593394 185.762115,66.4120879 C186.65397,66.6648364 187.446719,67.0439535 188.140384,67.5494505 C188.834049,68.0549476 189.401084,68.6923038 189.841507,69.4615385 C190.281929,70.2307731 190.546178,71.1428519 190.634263,72.1978022 L186.868671,72.1978022 Z M194.135603,60 L197.901195,60 L197.901195,73.3846154 L204.705686,66.4945055 L209.330098,66.4945055 L202.789859,72.7582418 L209.957696,83.5384615 L205.366317,83.5384615 L200.147338,75.2637363 L197.901195,77.4395604 L197.901195,83.5384615 L194.135603,83.5384615 L194.135603,60 Z M223.830931,73.5164835 C223.786889,72.923074 223.660269,72.3516511 223.451068,71.8021978 C223.241868,71.2527445 222.955598,70.7747273 222.592249,70.3681319 C222.228901,69.9615364 221.788485,69.6318694 221.270989,69.3791209 C220.753493,69.1263724 220.175447,69 219.536834,69 C218.876201,69 218.276135,69.1153835 217.736617,69.3461538 C217.1971,69.5769242 216.734663,69.8956024 216.349294,70.3021978 C215.963924,70.7087932 215.655633,71.1868104 215.424411,71.7362637 C215.19319,72.285717 215.06657,72.8791177 215.044549,73.5164835 L223.830931,73.5164835 Z M215.044549,75.989011 C215.044549,76.6483549 215.138137,77.2857112 215.325317,77.9010989 C215.512496,78.5164866 215.793261,79.0549427 216.16762,79.5164835 C216.541979,79.9780243 217.015426,80.3461525 217.587975,80.6208791 C218.160524,80.8956058 218.843169,81.032967 219.635929,81.032967 C220.736985,81.032967 221.623322,80.7967057 222.294966,80.3241758 C222.96661,79.851646 223.467583,79.1428619 223.797899,78.1978022 L227.365302,78.1978022 C227.167112,79.1208837 226.82579,79.9450513 226.341326,80.6703297 C225.856861,81.395608 225.27331,82.005492 224.590656,82.5 C223.908001,82.994508 223.142779,83.3681306 222.294966,83.6208791 C221.447153,83.8736276 220.560816,84 219.635929,84 C218.292641,84 217.103518,83.780222 216.068526,83.3406593 C215.033533,82.9010967 214.158207,82.2857182 213.442521,81.4945055 C212.726835,80.7032927 212.187325,79.7582473 211.823977,78.6593407 C211.460628,77.5604341 211.278957,76.3516549 211.278957,75.032967 C211.278957,73.8241698 211.471639,72.6758296 211.857008,71.5879121 C212.242378,70.4999946 212.792898,69.5439602 213.508584,68.7197802 C214.22427,67.8956003 215.088586,67.2417607 216.101557,66.7582418 C217.114529,66.2747229 218.25961,66.032967 219.536834,66.032967 C220.880123,66.032967 222.085761,66.313184 223.153785,66.8736264 C224.221809,67.4340687 225.108146,68.1758196 225.812821,69.0989011 C226.517497,70.0219826 227.02948,71.0824116 227.348787,72.2802198 C227.668093,73.478028 227.750671,74.7142793 227.596523,75.989011 L215.044549,75.989011 Z M229.082941,66.4945055 L231.923651,66.4945055 L231.923651,61.3846154 L235.689243,61.3846154 L235.689243,66.4945055 L239.091489,66.4945055 L239.091489,69.2967033 L235.689243,69.2967033 L235.689243,78.3956044 C235.689243,78.7912108 235.705759,79.1318667 235.73879,79.4175824 C235.771822,79.7032981 235.848895,79.945054 235.970011,80.1428571 C236.091127,80.3406603 236.272798,80.4890105 236.515031,80.5879121 C236.757263,80.6868137 237.087575,80.7362637 237.505976,80.7362637 C237.770229,80.7362637 238.034479,80.7307693 238.298732,80.7197802 C238.562986,80.7087912 238.827235,80.67033 239.091489,80.6043956 L239.091489,83.5054945 C238.673087,83.5494508 238.265703,83.5934064 237.869323,83.6373626 C237.472943,83.6813189 237.065558,83.7032967 236.647157,83.7032967 C235.656207,83.7032967 234.857953,83.609891 234.252372,83.4230769 C233.646792,83.2362628 233.173345,82.9615403 232.832017,82.5989011 C232.49069,82.2362619 232.259472,81.7802225 232.138356,81.2307692 C232.01724,80.6813159 231.945672,80.0549486 231.923651,79.3516484 L231.923651,69.2967033 L229.082941,69.2967033 L229.082941,66.4945055 Z M244.971097,78.0659341 C245.081203,79.1648407 245.499598,79.9340637 246.226295,80.3736264 C246.952992,80.813189 247.822813,81.032967 248.835784,81.032967 C249.188122,81.032967 249.590001,81.0054948 250.041434,80.9505495 C250.492867,80.8956041 250.916767,80.7912096 251.313147,80.6373626 C251.709528,80.4835157 252.034334,80.2582432 252.287577,79.9615385 C252.54082,79.6648337 252.656429,79.2747277 252.634408,78.7912088 C252.612387,78.3076899 252.43622,77.9120895 252.105904,77.6043956 C251.775587,77.2967018 251.351687,77.0494515 250.834191,76.8626374 C250.316694,76.6758232 249.727638,76.5164842 249.067005,76.3846154 C248.406371,76.2527466 247.734737,76.1098909 247.052083,75.956044 C246.347407,75.802197 245.670268,75.6153857 245.020645,75.3956044 C244.371022,75.1758231 243.787471,74.8791227 243.269975,74.5054945 C242.752478,74.1318663 242.339589,73.6538491 242.031293,73.0714286 C241.722997,72.4890081 241.568852,71.7692351 241.568852,70.9120879 C241.568852,69.9890064 241.794565,69.2142888 242.245998,68.5879121 C242.697431,67.9615353 243.269971,67.4560459 243.963636,67.0714286 C244.657302,66.6868113 245.428029,66.4175832 246.275842,66.2637363 C247.123655,66.1098893 247.932919,66.032967 248.703658,66.032967 C249.584503,66.032967 250.426798,66.1263727 251.230569,66.3131868 C252.034339,66.5000009 252.761025,66.8021957 253.410648,67.2197802 C254.060271,67.6373647 254.599781,68.1813153 255.029192,68.8516484 C255.458604,69.5219814 255.728359,70.3296656 255.838464,71.2747253 L251.907715,71.2747253 C251.731546,70.3736219 251.318656,69.7692323 250.669033,69.4615385 C250.01941,69.1538446 249.276208,69 248.439406,69 C248.175153,69 247.861356,69.0219778 247.498008,69.0659341 C247.13466,69.1098903 246.793337,69.1923071 246.474031,69.3131868 C246.154725,69.4340665 245.88497,69.609889 245.664759,69.8406593 C245.444548,70.0714297 245.334444,70.3736245 245.334444,70.7472527 C245.334444,71.2087935 245.494095,71.5824162 245.813401,71.8681319 C246.132707,72.1538476 246.551102,72.390109 247.068598,72.5769231 C247.586095,72.7637372 248.175151,72.9230763 248.835784,73.0549451 C249.496418,73.1868138 250.179062,73.3296696 250.883738,73.4835165 C251.566392,73.6373634 252.238026,73.8241747 252.89866,74.043956 C253.559293,74.2637374 254.148349,74.5604377 254.665846,74.9340659 C255.183342,75.3076942 255.601737,75.7802169 255.921043,76.3516484 C256.240349,76.9230798 256.4,77.6263695 256.4,78.4615385 C256.4,79.4725325 256.168782,80.3296668 255.706338,81.032967 C255.243895,81.7362673 254.643828,82.3076901 253.906121,82.7472527 C253.168414,83.1868154 252.348139,83.5054935 251.445273,83.7032967 C250.542408,83.9010999 249.650566,84 248.769721,84 C247.690686,84 246.694246,83.8791221 245.780369,83.6373626 C244.866493,83.3956032 244.073745,83.027475 243.402101,82.532967 C242.730457,82.0384591 242.201958,81.4230806 241.816588,80.6868132 C241.431219,79.9505458 241.227526,79.0769281 241.205505,78.0659341 L244.971097,78.0659341 Z"></path>
                </g>
            </g>
        </g>
    </g>
</svg>