<?xml version="1.0" encoding="UTF-8"?>
<svg width="241px" height="44px" viewBox="0 0 241 44" version="1.1" xmlns="http://www.w3.org/2000/svg" xmlns:xlink="http://www.w3.org/1999/xlink">
    <!-- Generator: sketchtool 51.2 (57519) - http://www.bohemiancoding.com/sketch -->
    <title>1999CF65-FBFA-496B-9760-685677215964</title>
    <desc>Created with sketchtool.</desc>
    <defs></defs>
    <g id="mockups" stroke="none" stroke-width="1" fill="none" fill-rule="evenodd">
        <g id="3_Friends" transform="translate(-245.000000, -346.000000)" fill="#FFFFFF">
            <g id="content" transform="translate(90.000000, 167.000000)">
                <g id="rubyroid" transform="translate(110.000000, 129.000000)">
                    <g id="rubyroidlabs" transform="translate(45.000000, 50.000000)">
                        <path d="M32.5604261,1.1753573 L42.7668602,8.55009612 L47.1428571,22.1473027 L42.5152061,35.6868958 L30.6515123,44 L16.08342,43.909085 L4.35189133,35.4116992 L3.84795968,33.8111865 L0,21.8529016 L4.09919818,9.75058273 L4.60396105,8.27387796 L5.24151251,7.88202409 L16.4909292,0 L30.3676481,0.047806989 L31.0355394,0.0523016632 L32.5604261,1.1753573 Z M3.90282069,28.5628372 L4.04288252,15.1542026 L1.74848695,21.86802 L3.90282069,28.5628372 Z M5.21906937,32.6525821 L5.34375348,33.0399413 L13.7923493,21.9517844 L5.58231576,10.6497219 L5.444332,11.0528124 L5.21906937,32.6525821 Z M14.6210831,23.0922058 L6.34101862,33.9586936 L19.5338451,29.8552603 L14.6210831,23.0922058 Z M16.6334847,42.2779269 L24.4137737,42.3265511 L10.3363134,37.7282951 L16.6334847,42.2779269 Z M6.88173208,35.1918687 L28.552663,42.2701633 L20.3640335,30.9979291 L6.88173208,35.1918687 Z M30.0544832,42.0388919 L30.3549719,1.7204387 L17.0181352,1.63728722 L6.20760661,9.21224334 L30.0544832,42.0388919 Z M31.5935008,17.8599965 L31.53199,26.1226377 L44.6497982,22.0420865 L31.5935008,17.8599965 Z M41.1108473,34.6635402 L43.3030019,28.2504574 L35.5314409,38.5734981 L41.1108473,34.6635402 Z M44.7090232,24.1366047 L44.9812502,23.3404344 L31.5213918,27.5270191 L31.4176962,41.4560144 L31.9519676,41.0817306 L44.7090232,24.1366047 Z M44.9438449,20.731889 L44.7564031,20.1496244 L32.1556184,2.91050584 L31.707379,2.58668499 L31.6038912,16.4584753 L44.9438449,20.731889 Z M35.7018425,5.47308303 L43.4399467,16.0594709 L41.3454613,9.55138694 L35.7018425,5.47308303 Z M75.6690399,21.6562149 C75.6690399,23.0557447 75.3094453,24.1960803 74.5908832,25.076824 C73.8723211,25.9577666 72.9327756,26.6035658 71.7728738,27.0154144 L76.2142857,33.1885714 L71.5391373,33.1885714 L67.6429712,27.6570395 L64.5000722,27.6570395 L64.5000722,33.1885714 L60.5,33.1885714 L60.5,15.9028571 L68.8116538,15.9028571 C71.114732,15.9028571 72.880927,16.4870381 74.1106571,17.6557976 C75.1493002,18.6434789 75.6690399,19.9613148 75.6690399,21.6562149 Z M71.6169101,21.8539896 L71.6169101,21.804695 C71.6169101,20.9813954 71.3396877,20.3642188 70.7856611,19.952569 C70.2314254,19.541118 69.4610148,19.3349949 68.4740111,19.3349949 L64.5000722,19.3349949 L64.5000722,24.2986449 L68.551993,24.2986449 C69.5387876,24.2986449 70.2964451,24.0764216 70.8247565,23.6317762 C71.3526498,23.1873295 71.6169101,22.594999 71.6169101,21.8539896 Z M91.1043936,26.0948614 L91.1043936,15.9028571 L95.0714286,15.9028571 L95.0714286,25.941835 C95.0714286,27.2982048 94.886679,28.4757711 94.5175947,29.4749431 C94.1480956,30.4747288 93.6199732,31.309418 92.9332274,31.9788059 C92.2462743,32.6481938 91.4133462,33.148189 90.4344432,33.4783822 C89.4555402,33.80878 88.3646678,33.9742857 87.1628627,33.9742857 C84.741213,33.9742857 82.8350374,33.313081 81.443921,31.9912853 C80.0528047,30.6698988 79.3571429,28.6961045 79.3571429,26.0690842 L79.3571429,15.9028571 L83.3243852,15.9028571 L83.3243852,25.9678168 C83.3243852,27.4252494 83.6677581,28.5218018 84.3549185,29.2593151 C85.0416643,29.9960101 85.9946485,30.364869 87.2142857,30.364869 C88.4335083,30.364869 89.3869071,30.0088987 90.0736529,29.2973671 C90.760606,28.5852218 91.1043936,27.5179245 91.1043936,26.0948614 Z M112.983091,23.5576355 C112.693497,23.7886046 112.382823,23.9863794 112.050216,24.150761 C113.120648,24.5298128 113.96345,25.0440272 114.578198,25.6938018 C115.19252,26.3441728 115.5,27.2457872 115.5,28.4471448 C115.5,29.2380451 115.337104,29.9291636 115.011311,30.5216929 C114.685731,31.1142221 114.218974,31.6083609 113.611466,32.0033141 C113.003746,32.3986649 112.273374,32.6952277 111.419285,32.8922074 C110.56541,33.0899822 109.619121,33.1885714 108.580416,33.1885714 L99.7857143,33.1885714 L99.7857143,15.9028571 L108.368332,15.9028571 C110.498335,15.9028571 112.1092,16.4128974 113.200925,17.4333755 C114.045857,18.2236796 114.46811,19.2032113 114.46811,20.421663 C114.46811,20.915603 114.402525,21.3520989 114.271144,21.7305543 C114.139549,22.1096061 113.964302,22.4508918 113.745403,22.7554053 C113.526079,23.0601176 113.272259,23.3276602 112.983091,23.5576355 Z M103.753998,19.2366044 L103.753998,22.8909655 L107.510411,22.8909655 C108.410067,22.8909655 109.124469,22.7472558 109.653403,22.4590413 C110.182338,22.1712243 110.447018,21.705907 110.447018,21.0636856 L110.447018,21.0145897 C110.447018,20.4385583 110.217685,19.9978883 109.759233,19.6929772 C109.300355,19.3888612 108.638974,19.2366044 107.775304,19.2366044 L103.753998,19.2366044 Z M111.478695,27.9782496 L111.478695,27.9291537 C111.478695,27.3529235 111.240845,26.8957557 110.764719,26.5582466 C110.288167,26.2209362 109.52117,26.0521817 108.462875,26.0521817 L103.753998,26.0521817 L103.753998,29.8550229 L108.595109,29.8550229 C109.494766,29.8550229 110.199798,29.7031637 110.711698,29.3980538 C111.222958,29.0937391 111.478695,28.6202722 111.478695,27.9782496 Z M124.561989,22.8416709 L129.001338,15.9028571 L133.571429,15.9028571 L126.546664,26.2988535 L126.546664,33.1885714 L122.524765,33.1885714 L122.524765,26.373193 L115.5,15.9028571 L120.200833,15.9028571 L124.561989,22.8416709 Z M150.311688,21.6562149 C150.311688,23.0557447 149.952093,24.1960803 149.23374,25.076824 C148.514969,25.9577666 147.575424,26.6035658 146.415522,27.0154144 L150.857143,33.1885714 L146.181785,33.1885714 L142.285619,27.6570395 L139.14272,27.6570395 L139.14272,33.1885714 L135.142857,33.1885714 L135.142857,15.9028571 L143.454511,15.9028571 C145.757171,15.9028571 147.523575,16.4870381 148.753305,17.6557976 C149.792157,18.6434789 150.311688,19.9613148 150.311688,21.6562149 Z M146.259767,21.8539896 L146.259767,21.804695 C146.259767,20.9813954 145.982545,20.3642188 145.428518,19.952569 C144.874073,19.541118 144.103663,19.3349949 143.116868,19.3349949 L139.14272,19.3349949 L139.14272,24.2986449 L143.19485,24.2986449 C144.181645,24.2986449 144.939093,24.0764216 145.467405,23.6317762 C145.995507,23.1873295 146.259767,22.594999 146.259767,21.8539896 Z M167.781643,15.8287414 C168.978494,16.3028725 170.012564,16.9435523 170.884064,17.7505798 C171.755351,18.5574064 172.432618,19.5062714 172.916926,20.5957685 C173.400809,21.6858684 173.642857,22.8549231 173.642857,24.1525558 C173.642857,25.4005654 173.396347,26.570022 172.90375,27.65972 C172.410942,28.749619 171.729,29.7063192 170.8575,30.5302225 C169.986212,31.353724 168.94768,32.0026408 167.742116,32.4769729 C166.536339,32.951104 165.220907,33.1885714 163.795184,33.1885714 C162.36946,33.1885714 161.058066,32.951104 159.861215,32.4769729 C158.663938,32.0026408 157.630294,31.362162 156.759006,30.5549336 C155.887719,29.748107 155.209815,28.799242 154.726144,27.7093431 C154.241623,26.619645 154,25.4507912 154,24.1525558 C154,22.9045462 154.246298,21.736295 154.739107,20.6459943 C155.231915,19.5560953 155.914282,18.5989933 156.785357,17.7754918 C157.656645,16.9519902 158.694964,16.3028725 159.900741,15.8287414 C161.106093,15.3542084 162.422375,15.1171429 163.847886,15.1171429 C165.27361,15.1171429 166.584579,15.3542084 167.781643,15.8287414 Z M169.392249,24.2027815 L169.392249,24.1525558 C169.392249,23.404192 169.255819,22.6970133 168.983169,22.0308189 C168.709883,21.3658298 168.322903,20.7830101 167.821382,20.283967 C167.319648,19.7845221 166.725685,19.3897476 166.03928,19.0984382 C165.352876,18.8075306 164.604418,18.6612732 163.795184,18.6612732 C162.967461,18.6612732 162.215178,18.8031108 161.537699,19.0855804 C160.860007,19.3690546 160.27922,19.7596101 159.795124,20.2592559 C159.310816,20.7582991 158.932762,21.336498 158.6599,21.9938527 C158.386614,22.6512074 158.25082,23.3539662 158.25082,24.1029327 L158.25082,24.1525558 C158.25082,24.9015223 158.386614,25.6091028 158.6599,26.2740918 C158.932762,26.9398844 159.319954,27.5221014 159.821475,28.0217473 C160.323209,28.5205895 160.91271,28.9163685 161.590614,29.2072761 C162.267881,29.4985855 163.020375,29.6438383 163.847886,29.6438383 C164.657121,29.6438383 165.405578,29.5024026 166.091982,29.2193302 C166.778599,28.9366597 167.363637,28.5455015 167.847733,28.0464583 C168.331616,27.5476161 168.709883,26.9690154 168.983169,26.3116607 C169.255819,25.6543059 169.392249,24.9511453 169.392249,24.2027815 Z M176.785714,33.1885714 L176.785714,15.9028571 L180.714286,15.9028571 L180.714286,33.1885714 L176.785714,33.1885714 Z M196.778375,16.5568059 C198.002098,16.9933018 199.056058,17.5983535 199.940685,18.3721597 C200.824881,19.1457672 201.50825,20.0557299 201.99101,21.1008553 C202.473122,22.146577 202.714286,23.2781668 202.714286,24.5455155 C202.714286,25.7641659 202.473122,26.9001286 201.99101,27.9536023 C201.50825,29.0074735 200.824881,29.9210141 199.940685,30.6950191 C199.056058,31.4686266 198.002098,32.0776536 196.778375,32.5221002 C195.55422,32.9665469 194.209699,33.1885714 192.744811,33.1885714 L185.428571,33.1885714 L185.428571,15.9028571 L192.744811,15.9028571 C194.209699,15.9028571 195.55422,16.1207076 196.778375,16.5568059 Z M198.399652,24.5952077 L198.399652,24.5455155 C198.399652,23.7886046 198.261166,23.0887403 197.98441,22.4463201 C197.707007,21.804695 197.323043,21.2533109 196.831871,20.7923664 C196.340268,20.331422 195.746418,19.9732409 195.049674,19.7176245 C194.353146,19.4626044 193.584571,19.3349949 192.744811,19.3349949 L189.555753,19.3349949 L189.555753,29.7562349 L192.744811,29.7562349 C193.584571,29.7562349 194.353146,29.6327996 195.049674,29.385929 C195.746418,29.1390583 196.340268,28.7852502 196.831871,28.3237094 C197.323043,27.8635601 197.707007,27.3201267 197.98441,26.6944031 C198.261166,26.0684807 198.399652,25.3690139 198.399652,24.5952077 Z" id="Combined-Shape"></path>
                        <path d="M208.93136,19.04672 L211.37072,19.04672 L211.37072,30.8 L208.93136,30.8 L208.93136,19.04672 Z M218.75216,30.8 L218.75216,29.80208 C218.467039,30.1611218 218.097442,30.435679 217.64336,30.62576 C217.189278,30.815841 216.666563,30.91088 216.0752,30.91088 C215.177596,30.91088 214.464803,30.6653625 213.9368,30.17432 C213.408797,29.6832775 213.1448,29.041764 213.1448,28.24976 C213.1448,27.447196 213.427277,26.8215222 213.99224,26.37272 C214.557203,25.9239178 215.357115,25.6942401 216.392,25.68368 L218.73632,25.68368 L218.73632,25.52528 C218.73632,25.0711977 218.585842,24.7200812 218.28488,24.47192 C217.983918,24.2237588 217.543043,24.09968 216.96224,24.09968 C216.170236,24.09968 215.325444,24.3478375 214.42784,24.84416 L213.66752,23.16512 C214.343363,22.8271983 214.976957,22.5790408 215.56832,22.42064 C216.159683,22.2622392 216.809116,22.18304 217.51664,22.18304 C218.657126,22.18304 219.541517,22.4523173 220.16984,22.99088 C220.798163,23.5294427 221.1176,24.2791952 221.12816,25.24016 L221.144,30.8 L218.75216,30.8 Z M218.07104,28.80416 C217.701438,29.0470412 217.263203,29.16848 216.75632,29.16848 C216.344478,29.16848 216.019761,29.070801 215.78216,28.87544 C215.544559,28.680079 215.42576,28.4187216 215.42576,28.09136 C215.42576,27.7534383 215.539279,27.5079208 215.76632,27.3548 C215.993361,27.2016792 216.344478,27.12512 216.81968,27.12512 L218.73632,27.12512 L218.73632,27.88544 C218.6624,28.2550418 218.440642,28.5612788 218.07104,28.80416 Z M230.56088,22.74536 C231.168083,23.1096818 231.637998,23.6244767 231.97064,24.28976 C232.303282,24.9550433 232.4696,25.7206357 232.4696,26.58656 C232.4696,27.4419243 232.305922,28.1943168 231.97856,28.84376 C231.651198,29.4932032 231.189203,29.9974382 230.59256,30.35648 C229.995917,30.7155218 229.301604,30.89504 228.5096,30.89504 C227.918237,30.89504 227.392882,30.7815211 226.93352,30.55448 C226.474158,30.3274389 226.086082,29.9974422 225.76928,29.56448 L225.76928,30.8 L223.32992,30.8 L223.32992,19.04672 L225.76928,19.04672 L225.76928,23.52944 C226.075522,23.0964778 226.458318,22.7664811 226.91768,22.53944 C227.377042,22.3123989 227.891837,22.19888 228.46208,22.19888 C229.254084,22.19888 229.953677,22.3810382 230.56088,22.74536 Z M229.41248,28.21016 C229.021758,28.6484022 228.514883,28.86752 227.89184,28.86752 C227.268797,28.86752 226.759282,28.6510422 226.36328,28.21808 C225.967278,27.7851178 225.76928,27.2148835 225.76928,26.50736 C225.76928,25.8209566 225.967278,25.2586422 226.36328,24.8204 C226.759282,24.3821578 227.268797,24.16304 227.89184,24.16304 C228.514883,24.16304 229.021758,24.3821578 229.41248,24.8204 C229.803202,25.2586422 229.99856,25.8209566 229.99856,26.50736 C229.99856,27.2043235 229.803202,27.7719178 229.41248,28.21016 Z M238.07696,24.17096 C237.622878,24.0283993 237.216322,23.95712 236.85728,23.95712 C236.561599,23.95712 236.324001,24.0099195 236.14448,24.11552 C235.964959,24.2211205 235.8752,24.3795189 235.8752,24.59072 C235.8752,24.8230412 235.996639,25.0025594 236.23952,25.12928 C236.482401,25.2560006 236.878397,25.3985592 237.42752,25.55696 C238.029443,25.7364809 238.525758,25.9133591 238.91648,26.0876 C239.307202,26.2618409 239.645119,26.5205583 239.93024,26.86376 C240.215361,27.2069617 240.35792,27.6583972 240.35792,28.21808 C240.35792,29.0628842 240.033203,29.7202377 239.38376,30.19016 C238.734317,30.6600823 237.902725,30.89504 236.88896,30.89504 C236.191997,30.89504 235.521443,30.792081 234.87728,30.58616 C234.233117,30.380239 233.673442,30.0872019 233.19824,29.70704 L233.99024,28.05968 C234.423202,28.3976017 234.906317,28.6589591 235.4396,28.84376 C235.972883,29.0285609 236.477118,29.12096 236.95232,29.12096 C237.279682,29.12096 237.541039,29.0655206 237.7364,28.95464 C237.931761,28.8437594 238.02944,28.6774411 238.02944,28.45568 C238.02944,28.2127988 237.905361,28.0227207 237.6572,27.88544 C237.409039,27.7481593 237.010403,27.6003208 236.46128,27.44192 C235.880477,27.2729592 235.397362,27.1040008 235.01192,26.93504 C234.626478,26.7660792 234.296481,26.5100017 234.02192,26.1668 C233.747359,25.8235983 233.61008,25.3774427 233.61008,24.82832 C233.61008,23.9835158 233.926877,23.3288023 234.56048,22.86416 C235.194083,22.3995177 235.996635,22.1672 236.96816,22.1672 C237.548963,22.1672 238.129757,22.2490392 238.71056,22.41272 C239.291363,22.5764008 239.819358,22.8113585 240.29456,23.1176 L239.45504,24.7808 C238.990398,24.5167987 238.531042,24.3135207 238.07696,24.17096 Z" id="Combined-Shape"></path>
                    </g>
                </g>
            </g>
        </g>
    </g>
</svg>