<?xml version="1.0" encoding="UTF-8"?>
<svg width="228px" height="30px" viewBox="0 0 228 30" version="1.1" xmlns="http://www.w3.org/2000/svg" xmlns:xlink="http://www.w3.org/1999/xlink">
    <!-- Generator: sketchtool 51.2 (57519) - http://www.bohemiancoding.com/sketch -->
    <title>CC4A1AC1-AA67-4915-823B-B252B1810A5D</title>
    <desc>Created with sketchtool.</desc>
    <defs></defs>
    <g id="mockups-:hover" stroke="none" stroke-width="1" fill="none" fill-rule="evenodd">
        <g id="[:hover]-1_home" transform="translate(-648.000000, -5026.000000)" fill="#FFFFFF">
            <g id="our-friends" transform="translate(0.000000, 4765.000000)">
                <g id="logos" transform="translate(260.000000, 246.000000)">
                    <path d="M409.098901,44.4230769 L404.648352,44.4230769 L404.648352,41.5384615 L404.565934,41.5384615 C403.934063,42.7747315 403.013742,43.6607116 401.804945,44.1964286 C400.596148,44.7321455 399.318688,45 397.972527,45 C396.296695,45 394.833797,44.7046733 393.583791,44.114011 C392.333785,43.5233487 391.296707,42.7197853 390.472527,41.7032967 C389.648348,40.6868081 389.030222,39.484897 388.618132,38.0975275 C388.206042,36.7101579 388,35.2197882 388,33.6263736 C388,31.7032871 388.260986,30.0412158 388.782967,28.6401099 C389.304948,27.239004 389.998622,26.0851694 390.864011,25.1785714 C391.7294,24.2719735 392.718401,23.6057714 393.831044,23.1799451 C394.943687,22.7541188 396.076917,22.5412088 397.230769,22.5412088 C397.890113,22.5412088 398.563183,22.6030214 399.25,22.7266484 C399.936817,22.8502753 400.596151,23.0494492 401.228022,23.3241758 C401.859893,23.5989025 402.443679,23.9491737 402.979396,24.375 C403.515113,24.8008263 403.961537,25.3021949 404.318681,25.8791209 L404.401099,25.8791209 L404.401099,15 L409.098901,15 L409.098901,44.4230769 Z M392.697802,33.9972527 C392.697802,34.9038507 392.814559,35.7966989 393.048077,36.6758242 C393.281595,37.5549495 393.638734,38.3379087 394.119505,39.0247253 C394.600277,39.7115419 395.211535,40.260987 395.953297,40.6730769 C396.695059,41.0851669 397.574171,41.2912088 398.590659,41.2912088 C399.634621,41.2912088 400.534337,41.0714308 401.289835,40.6318681 C402.045333,40.1923055 402.663459,39.6153882 403.144231,38.9010989 C403.625002,38.1868096 403.982142,37.3832462 404.215659,36.4903846 C404.449177,35.597523 404.565934,34.6840706 404.565934,33.75 C404.565934,31.3873508 404.037093,29.5467099 402.979396,28.228022 C401.921698,26.9093341 400.486273,26.25 398.673077,26.25 C397.57417,26.25 396.646982,26.4766461 395.891484,26.9299451 C395.135985,27.383244 394.51786,27.9738975 394.037088,28.7019231 C393.556316,29.4299487 393.212913,30.2541163 393.006868,31.1744505 C392.800823,32.0947848 392.697802,33.0357095 392.697802,33.9972527 Z M432.464286,39.6840659 C432.464286,40.2609919 432.539834,40.6730757 432.690934,40.9203297 C432.842034,41.1675837 433.13736,41.2912088 433.576923,41.2912088 L434.071429,41.2912088 C434.263737,41.2912088 434.483515,41.2637365 434.730769,41.2087912 L434.730769,44.4642857 C434.565933,44.519231 434.353023,44.5810436 434.092033,44.6497253 C433.831043,44.7184069 433.563188,44.7802195 433.288462,44.8351648 C433.013735,44.8901102 432.739012,44.9313185 432.464286,44.9587912 C432.189559,44.9862639 431.956045,45 431.763736,45 C430.802193,45 430.005498,44.8076942 429.373626,44.4230769 C428.741755,44.0384596 428.329671,43.3653894 428.137363,42.4038462 C427.203292,43.3104441 426.056325,43.9697782 424.696429,44.3818681 C423.336532,44.7939581 422.024732,45 420.760989,45 C419.799446,45 418.879125,44.8695068 418,44.6085165 C417.120875,44.3475262 416.344784,43.9629146 415.671703,43.4546703 C414.998623,42.946426 414.462914,42.3008281 414.06456,41.5178571 C413.666207,40.7348862 413.467033,39.8214338 413.467033,38.7774725 C413.467033,37.4587846 413.707415,36.3873668 414.188187,35.5631868 C414.668958,34.7390069 415.30082,34.0934089 416.083791,33.6263736 C416.866762,33.1593383 417.745874,32.8228032 418.721154,32.6167582 C419.696433,32.4107133 420.678566,32.2527478 421.667582,32.1428571 C422.519235,31.9780212 423.329666,31.8612641 424.098901,31.7925824 C424.868136,31.7239008 425.548074,31.6071437 426.138736,31.4423077 C426.729399,31.2774717 427.196427,31.0233534 427.539835,30.6799451 C427.883243,30.3365367 428.054945,29.821432 428.054945,29.1346154 C428.054945,28.5302168 427.910716,28.0357162 427.622253,27.6510989 C427.33379,27.2664816 426.97665,26.9711549 426.550824,26.7651099 C426.124998,26.5590649 425.651102,26.4217036 425.129121,26.353022 C424.60714,26.2843403 424.11264,26.25 423.645604,26.25 C422.326916,26.25 421.241763,26.5247225 420.39011,27.0741758 C419.538457,27.6236291 419.057693,28.475269 418.947802,29.6291209 L414.25,29.6291209 C414.332418,28.2554876 414.662085,27.1153891 415.239011,26.2087912 C415.815937,25.3021933 416.55082,24.5741786 417.443681,24.0247253 C418.336543,23.475272 419.346148,23.0906604 420.472527,22.8708791 C421.598907,22.6510978 422.752741,22.5412088 423.934066,22.5412088 C424.978027,22.5412088 426.008237,22.6510978 427.024725,22.8708791 C428.041214,23.0906604 428.954666,23.4477997 429.76511,23.9423077 C430.575554,24.4368157 431.22802,25.0755455 431.722527,25.8585165 C432.217035,26.6414874 432.464286,27.5961482 432.464286,28.7225275 L432.464286,39.6840659 Z M427.766484,33.75 C427.052194,34.2170353 426.173082,34.4986259 425.129121,34.5947802 C424.08516,34.6909345 423.041214,34.8351639 421.997253,35.0274725 C421.502745,35.1098905 421.02198,35.2266476 420.554945,35.3777473 C420.08791,35.5288469 419.675826,35.7348888 419.318681,35.9958791 C418.961537,36.2568694 418.679946,36.6002726 418.473901,37.0260989 C418.267856,37.4519252 418.164835,37.9670299 418.164835,38.5714286 C418.164835,39.0934092 418.315933,39.5329652 418.618132,39.8901099 C418.920331,40.2472545 419.284339,40.5288451 419.710165,40.7348901 C420.135991,40.9409351 420.603019,41.0851644 421.111264,41.1675824 C421.619508,41.2500004 422.079668,41.2912088 422.491758,41.2912088 C423.013739,41.2912088 423.57692,41.2225282 424.181319,41.0851648 C424.785717,40.9478015 425.355767,40.7142874 425.891484,40.3846154 C426.4272,40.0549434 426.873625,39.6359916 427.230769,39.1277473 C427.587914,38.619503 427.766484,37.9945092 427.766484,37.2527473 L427.766484,33.75 Z M435.802198,23.1181319 L439.346154,23.1181319 L439.346154,16.7307692 L444.043956,16.7307692 L444.043956,23.1181319 L448.288462,23.1181319 L448.288462,26.6208791 L444.043956,26.6208791 L444.043956,37.9945055 C444.043956,38.4890135 444.06456,38.9148334 444.105769,39.271978 C444.146978,39.6291227 444.243131,39.9313174 444.394231,40.1785714 C444.54533,40.4258254 444.771977,40.6112631 445.074176,40.7348901 C445.376375,40.8585171 445.788459,40.9203297 446.31044,40.9203297 C446.640112,40.9203297 446.969779,40.9134616 447.299451,40.8997253 C447.629123,40.8859889 447.95879,40.8379125 448.288462,40.7554945 L448.288462,44.3818681 C447.766481,44.4368135 447.258244,44.491758 446.763736,44.5467033 C446.269228,44.6016486 445.760992,44.6291209 445.239011,44.6291209 C444.002741,44.6291209 443.006872,44.5123638 442.251374,44.2788462 C441.495875,44.0453285 440.905222,43.7019253 440.479396,43.2486264 C440.053569,42.7953274 439.765111,42.2252782 439.614011,41.5384615 C439.462911,40.8516449 439.373627,40.0686857 439.346154,39.1895604 L439.346154,26.6208791 L435.802198,26.6208791 L435.802198,23.1181319 Z M469.923077,39.6840659 C469.923077,40.2609919 469.998626,40.6730757 470.149725,40.9203297 C470.300825,41.1675837 470.596152,41.2912088 471.035714,41.2912088 L471.53022,41.2912088 C471.722528,41.2912088 471.942306,41.2637365 472.18956,41.2087912 L472.18956,44.4642857 C472.024724,44.519231 471.811815,44.5810436 471.550824,44.6497253 C471.289834,44.7184069 471.021979,44.7802195 470.747253,44.8351648 C470.472526,44.8901102 470.197804,44.9313185 469.923077,44.9587912 C469.64835,44.9862639 469.414836,45 469.222527,45 C468.260984,45 467.464289,44.8076942 466.832418,44.4230769 C466.200546,44.0384596 465.788463,43.3653894 465.596154,42.4038462 C464.662083,43.3104441 463.515117,43.9697782 462.15522,44.3818681 C460.795323,44.7939581 459.483523,45 458.21978,45 C457.258237,45 456.337917,44.8695068 455.458791,44.6085165 C454.579666,44.3475262 453.803575,43.9629146 453.130495,43.4546703 C452.457414,42.946426 451.921705,42.3008281 451.523352,41.5178571 C451.124998,40.7348862 450.925824,39.8214338 450.925824,38.7774725 C450.925824,37.4587846 451.166206,36.3873668 451.646978,35.5631868 C452.12775,34.7390069 452.759611,34.0934089 453.542582,33.6263736 C454.325553,33.1593383 455.204665,32.8228032 456.179945,32.6167582 C457.155225,32.4107133 458.137358,32.2527478 459.126374,32.1428571 C459.978026,31.9780212 460.788458,31.8612641 461.557692,31.7925824 C462.326927,31.7239008 463.006865,31.6071437 463.597527,31.4423077 C464.18819,31.2774717 464.655218,31.0233534 464.998626,30.6799451 C465.342035,30.3365367 465.513736,29.821432 465.513736,29.1346154 C465.513736,28.5302168 465.369507,28.0357162 465.081044,27.6510989 C464.792581,27.2664816 464.435442,26.9711549 464.009615,26.7651099 C463.583789,26.5590649 463.109893,26.4217036 462.587912,26.353022 C462.065931,26.2843403 461.571431,26.25 461.104396,26.25 C459.785708,26.25 458.700554,26.5247225 457.848901,27.0741758 C456.997249,27.6236291 456.516484,28.475269 456.406593,29.6291209 L451.708791,29.6291209 C451.791209,28.2554876 452.120876,27.1153891 452.697802,26.2087912 C453.274728,25.3021933 454.009611,24.5741786 454.902473,24.0247253 C455.795334,23.475272 456.804939,23.0906604 457.931319,22.8708791 C459.057698,22.6510978 460.211533,22.5412088 461.392857,22.5412088 C462.436818,22.5412088 463.467028,22.6510978 464.483517,22.8708791 C465.500005,23.0906604 466.413458,23.4477997 467.223901,23.9423077 C468.034345,24.4368157 468.686811,25.0755455 469.181319,25.8585165 C469.675827,26.6414874 469.923077,27.5961482 469.923077,28.7225275 L469.923077,39.6840659 Z M465.225275,33.75 C464.510985,34.2170353 463.631873,34.4986259 462.587912,34.5947802 C461.543951,34.6909345 460.500005,34.8351639 459.456044,35.0274725 C458.961536,35.1098905 458.480772,35.2266476 458.013736,35.3777473 C457.546701,35.5288469 457.134617,35.7348888 456.777473,35.9958791 C456.420328,36.2568694 456.138737,36.6002726 455.932692,37.0260989 C455.726647,37.4519252 455.623626,37.9670299 455.623626,38.5714286 C455.623626,39.0934092 455.774724,39.5329652 456.076923,39.8901099 C456.379122,40.2472545 456.74313,40.5288451 457.168956,40.7348901 C457.594782,40.9409351 458.061811,41.0851644 458.570055,41.1675824 C459.078299,41.2500004 459.538459,41.2912088 459.950549,41.2912088 C460.47253,41.2912088 461.035711,41.2225282 461.64011,41.0851648 C462.244509,40.9478015 462.814558,40.7142874 463.350275,40.3846154 C463.885992,40.0549434 464.332416,39.6359916 464.68956,39.1277473 C465.046705,38.619503 465.225275,37.9945092 465.225275,37.2527473 L465.225275,33.75 Z M475.403846,23.1181319 L479.813187,23.1181319 L479.813187,27.239011 L479.895604,27.239011 C480.032968,26.662085 480.300822,26.0989038 480.699176,25.5494505 C481.097529,24.9999973 481.578294,24.4986286 482.141484,24.0453297 C482.704673,23.5920307 483.329667,23.2280234 484.016484,22.9532967 C484.7033,22.6785701 485.403843,22.5412088 486.118132,22.5412088 C486.667585,22.5412088 487.045329,22.5549449 487.251374,22.5824176 C487.457419,22.6098902 487.670329,22.6373625 487.89011,22.6648352 L487.89011,27.1978022 C487.560438,27.1428569 487.223903,27.0947804 486.880495,27.0535714 C486.537086,27.0123624 486.200551,26.9917582 485.870879,26.9917582 C485.074172,26.9917582 484.325553,27.1497237 483.625,27.4656593 C482.924447,27.781595 482.313189,28.2486233 481.791209,28.8667582 C481.269228,29.4848932 480.857144,30.2472482 480.554945,31.1538462 C480.252746,32.0604441 480.101648,33.1043897 480.101648,34.2857143 L480.101648,44.4230769 L475.403846,44.4230769 L475.403846,23.1181319 Z M499.346154,45 C497.642849,45 496.125007,44.7184094 494.792582,44.1552198 C493.460158,43.5920302 492.333796,42.815939 491.413462,41.8269231 C490.493127,40.8379071 489.792585,39.6566003 489.311813,38.282967 C488.831042,36.9093338 488.590659,35.3983599 488.590659,33.75 C488.590659,32.1291128 488.831042,30.631875 489.311813,29.2582418 C489.792585,27.8846085 490.493127,26.7033016 491.413462,25.7142857 C492.333796,24.7252698 493.460158,23.9491786 494.792582,23.385989 C496.125007,22.8227994 497.642849,22.5412088 499.346154,22.5412088 C501.049459,22.5412088 502.567301,22.8227994 503.899725,23.385989 C505.23215,23.9491786 506.358512,24.7252698 507.278846,25.7142857 C508.19918,26.7033016 508.899723,27.8846085 509.380495,29.2582418 C509.861266,30.631875 510.101648,32.1291128 510.101648,33.75 C510.101648,35.3983599 509.861266,36.9093338 509.380495,38.282967 C508.899723,39.6566003 508.19918,40.8379071 507.278846,41.8269231 C506.358512,42.815939 505.23215,43.5920302 503.899725,44.1552198 C502.567301,44.7184094 501.049459,45 499.346154,45 Z M499.346154,41.2912088 C500.390115,41.2912088 501.296699,41.0714308 502.065934,40.6318681 C502.835169,40.1923055 503.467031,39.6153882 503.961538,38.9010989 C504.456046,38.1868096 504.820054,37.3832462 505.053571,36.4903846 C505.287089,35.597523 505.403846,34.6840706 505.403846,33.75 C505.403846,32.8434021 505.287089,31.9368177 505.053571,31.0302198 C504.820054,30.1236218 504.456046,29.3200584 503.961538,28.6195055 C503.467031,27.9189525 502.835169,27.3489033 502.065934,26.9093407 C501.296699,26.469778 500.390115,26.25 499.346154,26.25 C498.302193,26.25 497.395608,26.469778 496.626374,26.9093407 C495.857139,27.3489033 495.225277,27.9189525 494.730769,28.6195055 C494.236261,29.3200584 493.872254,30.1236218 493.638736,31.0302198 C493.405219,31.9368177 493.288462,32.8434021 493.288462,33.75 C493.288462,34.6840706 493.405219,35.597523 493.638736,36.4903846 C493.872254,37.3832462 494.236261,38.1868096 494.730769,38.9010989 C495.225277,39.6153882 495.857139,40.1923055 496.626374,40.6318681 C497.395608,41.0714308 498.302193,41.2912088 499.346154,41.2912088 Z M528.81044,30.2472527 C528.618131,28.9285648 528.08929,27.9326957 527.223901,27.2596154 C526.358512,26.5865351 525.26649,26.25 523.947802,26.25 C523.343404,26.25 522.697806,26.3530209 522.010989,26.5590659 C521.324172,26.7651109 520.692311,27.1497225 520.115385,27.7129121 C519.538459,28.2761017 519.057694,29.0590609 518.673077,30.0618132 C518.28846,31.0645655 518.096154,32.3763655 518.096154,33.9972527 C518.096154,34.876378 518.199175,35.7554901 518.40522,36.6346154 C518.611265,37.5137407 518.940932,38.2966999 519.394231,38.9835165 C519.84753,39.6703331 520.431315,40.2266462 521.145604,40.6524725 C521.859894,41.0782988 522.72527,41.2912088 523.741758,41.2912088 C525.115392,41.2912088 526.248622,40.8653889 527.141484,40.0137363 C528.034345,39.1620837 528.590658,37.9670407 528.81044,36.4285714 L533.508242,36.4285714 C533.068679,39.2033106 532.017865,41.3255421 530.355769,42.7953297 C528.693673,44.2651172 526.489025,45 523.741758,45 C522.065926,45 520.589292,44.7184094 519.311813,44.1552198 C518.034334,43.5920302 516.956048,42.8228071 516.076923,41.8475275 C515.197798,40.8722479 514.531596,39.7115452 514.078297,38.3653846 C513.624998,37.019224 513.398352,35.5631946 513.398352,33.9972527 C513.398352,32.4038382 513.61813,30.9066004 514.057692,29.5054945 C514.497255,28.1043886 515.156589,26.8887414 516.035714,25.8585165 C516.91484,24.8282916 518.006862,24.0178601 519.311813,23.4271978 C520.616765,22.8365355 522.148343,22.5412088 523.906593,22.5412088 C525.142863,22.5412088 526.317302,22.6991742 527.429945,23.0151099 C528.542588,23.3310455 529.531589,23.8049419 530.396978,24.4368132 C531.262367,25.0686845 531.969778,25.8653798 532.519231,26.8269231 C533.068684,27.7884663 533.398351,28.9285648 533.508242,30.2472527 L528.81044,30.2472527 Z M537.876374,15 L542.574176,15 L542.574176,31.7307692 L551.063187,23.1181319 L556.832418,23.1181319 L548.673077,30.9478022 L557.615385,44.4230769 L551.887363,44.4230769 L545.376374,34.0796703 L542.574176,36.7994505 L542.574176,44.4230769 L537.876374,44.4230769 L537.876374,15 Z M574.923077,31.8956044 C574.868132,31.1538424 574.710166,30.4395639 574.449176,29.7527473 C574.188186,29.0659306 573.831046,28.4684091 573.377747,27.9601648 C572.924448,27.4519205 572.375003,27.0398367 571.729396,26.7239011 C571.083788,26.4079655 570.362641,26.25 569.565934,26.25 C568.741754,26.25 567.993135,26.3942293 567.320055,26.6826923 C566.646975,26.9711553 566.070057,27.369503 565.589286,27.8777473 C565.108514,28.3859916 564.723903,28.983513 564.43544,29.6703297 C564.146977,30.3571463 563.989011,31.0988971 563.961539,31.8956044 L574.923077,31.8956044 Z M563.961539,34.9862637 C563.961539,35.8104437 564.078296,36.607139 564.311813,37.3763736 C564.545331,38.1456082 564.895602,38.8186784 565.362637,39.3956044 C565.829673,39.9725304 566.420326,40.4326906 567.134615,40.7760989 C567.848905,41.1195072 568.700545,41.2912088 569.68956,41.2912088 C571.063194,41.2912088 572.168952,40.9958821 573.006868,40.4052198 C573.844784,39.8145575 574.469778,38.9285773 574.881868,37.7472527 L579.332418,37.7472527 C579.085164,38.9011047 578.659344,39.9313141 578.054945,40.8379121 C577.450546,41.74451 576.722532,42.506865 575.870879,43.125 C575.019227,43.743135 574.064566,44.2101633 573.006868,44.5260989 C571.949171,44.8420345 570.843412,45 569.68956,45 C568.013728,45 566.530226,44.7252775 565.239011,44.1758242 C563.947796,43.6263709 562.855774,42.8571478 561.962912,41.8681319 C561.070051,40.8791159 560.39698,39.6978091 559.943681,38.3241758 C559.490382,36.9505426 559.263736,35.4395687 559.263736,33.7912088 C559.263736,32.2802122 559.504119,30.844787 559.98489,29.4848901 C560.465662,28.1249932 561.152468,26.9299502 562.04533,25.8997253 C562.938191,24.8695003 564.016477,24.0522008 565.28022,23.4478022 C566.543962,22.8434036 567.97252,22.5412088 569.565934,22.5412088 C571.241767,22.5412088 572.745873,22.89148 574.078297,23.592033 C575.410721,24.2925859 576.516479,25.2197745 577.395604,26.3736264 C578.27473,27.5274783 578.91346,28.8530145 579.311813,30.3502747 C579.710167,31.847535 579.813188,33.3928492 579.620879,34.9862637 L563.961539,34.9862637 Z M581.475275,23.1181319 L585.019231,23.1181319 L585.019231,16.7307692 L589.717033,16.7307692 L589.717033,23.1181319 L593.961539,23.1181319 L593.961539,26.6208791 L589.717033,26.6208791 L589.717033,37.9945055 C589.717033,38.4890135 589.737637,38.9148334 589.778846,39.271978 C589.820055,39.6291227 589.916208,39.9313174 590.067308,40.1785714 C590.218407,40.4258254 590.445053,40.6112631 590.747253,40.7348901 C591.049452,40.8585171 591.461536,40.9203297 591.983517,40.9203297 C592.313189,40.9203297 592.642856,40.9134616 592.972528,40.8997253 C593.3022,40.8859889 593.631867,40.8379125 593.961539,40.7554945 L593.961539,44.3818681 C593.439558,44.4368135 592.931321,44.491758 592.436813,44.5467033 C591.942305,44.6016486 591.434069,44.6291209 590.912088,44.6291209 C589.675818,44.6291209 588.679949,44.5123638 587.924451,44.2788462 C587.168952,44.0453285 586.578299,43.7019253 586.152473,43.2486264 C585.726646,42.7953274 585.438188,42.2252782 585.287088,41.5384615 C585.135988,40.8516449 585.046703,40.0686857 585.019231,39.1895604 L585.019231,26.6208791 L581.475275,26.6208791 L581.475275,23.1181319 Z M601.296703,37.5824176 C601.434067,38.9560508 601.956039,39.9175797 602.862637,40.467033 C603.769235,41.0164863 604.854389,41.2912088 606.118132,41.2912088 C606.557695,41.2912088 607.059063,41.2568685 607.622253,41.1881868 C608.185442,41.1195052 608.714283,40.989012 609.208791,40.7967033 C609.703299,40.6043946 610.108515,40.3228041 610.424451,39.9519231 C610.740386,39.5810421 610.884616,39.0934096 610.857143,38.489011 C610.82967,37.8846124 610.609892,37.3901118 610.197802,37.0054945 C609.785712,36.6208772 609.256871,36.3118144 608.611264,36.0782967 C607.965656,35.8447791 607.230773,35.6456052 606.406593,35.4807692 C605.582414,35.3159332 604.74451,35.1373636 603.892857,34.9450549 C603.013732,34.7527463 602.16896,34.5192321 601.358517,34.2445055 C600.548073,33.9697788 599.820058,33.5989034 599.174451,33.1318681 C598.528843,32.6648328 598.013738,32.0673113 597.629121,31.3392857 C597.244504,30.6112601 597.052198,29.7115438 597.052198,28.6401099 C597.052198,27.486258 597.333788,26.5178611 597.896978,25.7348901 C598.460168,24.9519192 599.174446,24.3200573 600.039835,23.8392857 C600.905224,23.3585141 601.866753,23.021979 602.924451,22.8296703 C603.982148,22.6373617 604.991753,22.5412088 605.953297,22.5412088 C607.052203,22.5412088 608.103017,22.6579659 609.105769,22.8914835 C610.108522,23.1250012 611.015106,23.5027446 611.82555,24.0247253 C612.635993,24.5467059 613.309063,25.2266442 613.84478,26.0645604 C614.380497,26.9024767 614.717032,27.912082 614.854396,29.0934066 L609.95055,29.0934066 C609.730768,27.9670273 609.215663,27.2115404 608.40522,26.8269231 C607.594776,26.4423058 606.667588,26.25 605.623626,26.25 C605.293954,26.25 604.902475,26.2774723 604.449176,26.3324176 C603.995877,26.3873629 603.570057,26.4903839 603.171703,26.6414835 C602.77335,26.7925832 602.436815,27.0123612 602.162088,27.3008242 C601.887361,27.5892872 601.75,27.9670306 601.75,28.4340659 C601.75,29.0109919 601.949174,29.4780202 602.347528,29.8351648 C602.745881,30.1923095 603.267854,30.4876362 603.913462,30.7211538 C604.559069,30.9546715 605.293952,31.1538453 606.118132,31.3186813 C606.942312,31.4835173 607.793952,31.662087 608.673077,31.8543956 C609.52473,32.0467043 610.362633,32.2802184 611.186813,32.5549451 C612.010993,32.8296717 612.745876,33.2005471 613.391484,33.6675824 C614.037091,34.1346177 614.559064,34.7252712 614.957418,35.4395604 C615.355771,36.1538497 615.554945,37.0329618 615.554945,38.0769231 C615.554945,39.3406657 615.266486,40.4120835 614.689561,41.2912088 C614.112635,42.1703341 613.364016,42.8846126 612.443681,43.4340659 C611.523347,43.9835192 610.500006,44.3818669 609.373626,44.6291209 C608.247247,44.8763749 607.134621,45 606.035714,45 C604.689554,45 603.446434,44.8489026 602.306319,44.5467033 C601.166203,44.244504 600.177202,43.7843437 599.339286,43.1662088 C598.501369,42.5480738 597.842035,41.7788508 597.361264,40.8585165 C596.880492,39.9381822 596.626374,38.8461602 596.598901,37.5824176 L601.296703,37.5824176 Z" id="datarockets-hover"></path>
                </g>
            </g>
        </g>
    </g>
</svg>