<?xml version="1.0" encoding="UTF-8"?>
<svg width="328px" height="60px" viewBox="0 0 328 60" version="1.1" xmlns="http://www.w3.org/2000/svg" xmlns:xlink="http://www.w3.org/1999/xlink">
    <!-- Generator: sketchtool 51.2 (57519) - http://www.bohemiancoding.com/sketch -->
    <title>F5C5B3CC-ED15-4FB7-BA49-11A465AA44D8</title>
    <desc>Created with sketchtool.</desc>
    <defs></defs>
    <g id="mockups-:hover" stroke="none" stroke-width="1" fill="none" fill-rule="evenodd">
        <g id="[:hover]-1_home" transform="translate(-260.000000, -5011.000000)">
            <g id="our-friends" transform="translate(0.000000, 4765.000000)">
                <g id="logos" transform="translate(260.000000, 246.000000)">
                    <g id="rubyroidlabs-hover">
                        <path d="M44.4005811,1.60275995 L58.3184458,11.659222 L64.2857143,30.2008674 L57.9752811,48.6639488 L41.7975168,60 L21.9319363,59.876025 L5.93439726,48.2886807 L5.24721775,46.1061635 L0,29.7994112 L5.5898157,13.2962492 L6.27812871,11.2825608 L7.14751705,10.7482147 L22.4876308,0 L41.4104293,0.0651913487 L42.3211901,0.0713204498 L44.4005811,1.60275995 Z M5.32202822,38.9493235 L5.51302162,20.6648217 L2.38430038,29.8200273 L5.32202822,38.9493235 Z M7.11691277,44.5262483 L7.28693657,45.0544654 L18.8077491,29.9342515 L7.61224877,14.522348 L7.4240891,15.0720169 L7.11691277,44.5262483 Z M19.9378406,31.4893716 L8.64684357,46.3073094 L26.6370615,40.7117187 L19.9378406,31.4893716 Z M22.6820246,57.6517185 L33.2915096,57.7180242 L14.0949728,51.4476751 L22.6820246,57.6517185 Z M9.3841801,47.9889119 L38.9354495,57.6411318 L27.7691367,42.2699033 L9.3841801,47.9889119 Z M40.9833862,57.3257617 L41.3931435,2.34605277 L23.2065481,2.23266439 L8.46491811,12.56215 L40.9833862,57.3257617 Z M43.0820466,24.3545406 L42.9981682,35.6217787 L60.8860885,30.0573907 L43.0820466,24.3545406 Z M56.0602464,47.2684639 L59.0495481,38.5233509 L48.4519648,52.6002247 L56.0602464,47.2684639 Z M60.9668498,32.9135518 L61.3380684,31.8278651 L42.9837161,37.5368443 L42.842313,56.5309287 L43.570865,56.0205418 L60.9668498,32.9135518 Z M61.2870613,28.2707577 L61.0314588,27.4767605 L43.8485705,3.9688716 L43.237335,3.52729772 L43.0962152,22.4433755 L61.2870613,28.2707577 Z M48.6843307,7.46329504 L59.2362909,21.8992784 L56.3801745,13.0246186 L48.6843307,7.46329504 Z M103.185054,29.5312021 C103.185054,31.4396519 102.694698,32.9946549 101.714841,34.1956691 C100.734983,35.3969544 99.4537849,36.2775897 97.8721006,36.8392014 L103.928571,45.2571429 L97.553369,45.2571429 L92.2404152,37.7141448 L87.9546439,37.7141448 L87.9546439,45.2571429 L82.5,45.2571429 L82.5,21.6857143 L93.8340733,21.6857143 C96.9746345,21.6857143 99.3830823,22.4823247 101.059987,24.0760876 C102.476318,25.4229257 103.185054,27.2199748 103.185054,29.5312021 Z M97.6594228,29.800895 L97.6594228,29.733675 C97.6594228,28.6109937 97.2813923,27.7693893 96.5259015,27.2080487 C95.7701255,26.646979 94.7195656,26.3659021 93.3736515,26.3659021 L87.9546439,26.3659021 L87.9546439,33.1345158 L93.4799904,33.1345158 C94.8256194,33.1345158 95.8587888,32.831484 96.5792135,32.2251493 C97.2990679,31.6190857 97.6594228,30.8113623 97.6594228,29.800895 Z M124.233264,35.5839018 L124.233264,21.6857143 L129.642857,21.6857143 L129.642857,35.3752296 C129.642857,37.2248248 129.390926,38.830597 128.887629,40.1931043 C128.383767,41.5564484 127.6636,42.6946608 126.727128,43.6074626 C125.790374,44.5202643 124.654563,45.2020759 123.319695,45.6523393 C121.984828,46.1028818 120.497274,46.3285714 118.858449,46.3285714 C115.5562,46.3285714 112.956869,45.4269286 111.059892,43.62448 C109.162916,41.8225893 108.214286,39.1310516 108.214286,35.5487512 L108.214286,21.6857143 L113.624162,21.6857143 L113.624162,35.4106592 C113.624162,37.3980674 114.092397,38.8933661 115.029434,39.899066 C115.965906,40.9036501 117.26543,41.4066396 118.928571,41.4066396 C120.591148,41.4066396 121.891237,40.9212254 122.827708,39.9509551 C123.764463,38.9798479 124.233264,37.5244425 124.233264,35.5839018 Z M154.067851,32.1240484 C153.672951,32.4390063 153.249304,32.7086992 152.795749,32.932856 C154.255429,33.4497447 155.404705,34.1509462 156.242997,35.0370025 C157.080709,35.9238719 157.5,37.1533462 157.5,38.791561 C157.5,39.8700615 157.277869,40.8124958 156.833606,41.6204903 C156.389633,42.4284847 155.753147,43.1023103 154.924727,43.6408829 C154.096017,44.1799976 153.100055,44.5844014 151.935389,44.8530101 C150.771014,45.122703 149.480619,45.2571429 148.064204,45.2571429 L136.071429,45.2571429 L136.071429,21.6857143 L147.774998,21.6857143 C150.679548,21.6857143 152.876181,22.3812238 154.364898,23.7727848 C155.517078,24.8504721 156.092877,26.1861972 156.092877,27.8477222 C156.092877,28.5212768 156.003444,29.1164985 155.824287,29.6325741 C155.644839,30.1494628 155.405867,30.6148525 155.107368,31.0300982 C154.808289,31.4456149 154.462171,31.8104457 154.067851,32.1240484 Z M141.482725,26.2317333 L141.482725,31.214953 L146.605105,31.214953 C147.83191,31.214953 148.806094,31.0189852 149.527368,30.6259654 C150.248642,30.2334877 150.609569,29.5989641 150.609569,28.7232076 L150.609569,28.6562587 C150.609569,27.8707613 150.296843,27.2698476 149.671681,26.8540598 C149.045938,26.4393562 148.144055,26.2317333 146.966323,26.2317333 L141.482725,26.2317333 Z M152.016402,38.1521585 L152.016402,38.0852096 C152.016402,37.2994411 151.692061,36.6760305 151.042798,36.2157908 C150.392955,35.7558221 149.34705,35.5257023 147.903921,35.5257023 L141.482725,35.5257023 L141.482725,40.7113949 L148.08424,40.7113949 C149.311044,40.7113949 150.272452,40.5043141 150.970497,40.0882552 C151.66767,39.6732806 152.016402,39.027644 152.016402,38.1521585 Z M169.857258,31.1477331 L175.910915,21.6857143 L182.142857,21.6857143 L172.563632,35.862073 L172.563632,45.2571429 L167.079225,45.2571429 L167.079225,35.963445 L157.5,21.6857143 L163.910227,21.6857143 L169.857258,31.1477331 Z M204.970484,29.5312021 C204.970484,31.4396519 204.480127,32.9946549 203.500555,34.1956691 C202.520413,35.3969544 201.239214,36.2775897 199.65753,36.8392014 L205.714286,45.2571429 L199.338798,45.2571429 L194.025844,37.7141448 L189.740073,37.7141448 L189.740073,45.2571429 L184.285714,45.2571429 L184.285714,21.6857143 L195.619788,21.6857143 C198.759779,21.6857143 201.168512,22.4823247 202.845416,24.0760876 C204.262033,25.4229257 204.970484,27.2199748 204.970484,29.5312021 Z M199.445137,29.800895 L199.445137,29.733675 C199.445137,28.6109937 199.067107,27.7693893 198.311616,27.2080487 C197.555555,26.646979 196.504995,26.3659021 195.159366,26.3659021 L189.740073,26.3659021 L189.740073,33.1345158 L195.265705,33.1345158 C196.611334,33.1345158 197.644218,32.831484 198.364643,32.2251493 C199.084782,31.6190857 199.445137,30.8113623 199.445137,29.800895 Z M228.793149,21.5846474 C230.425219,22.2311898 231.835314,23.1048441 233.023723,24.2053361 C234.211842,25.3055541 235.135388,26.599461 235.795808,28.0851389 C236.455649,29.5716387 236.785714,31.1658042 236.785714,32.9353033 C236.785714,34.6371347 236.449563,36.2318481 235.777841,37.7178 C235.10583,39.2040258 234.175909,40.5086171 232.9875,41.6321216 C231.799381,42.7550782 230.3832,43.6399648 228.739249,44.2867812 C227.095008,44.9333237 225.301237,45.2571429 223.357069,45.2571429 C221.4129,45.2571429 219.624635,44.9333237 217.992565,44.2867812 C216.359916,43.6399648 214.9504,42.7665845 213.762281,41.6658185 C212.574162,40.5656005 211.649747,39.2716936 210.990196,37.7854678 C210.329486,36.2995159 210,34.7056243 210,32.9353033 C210,31.233472 210.335861,29.6404023 211.007873,28.1536286 C211.679885,26.6674027 212.610385,25.3622636 213.798214,24.239307 C214.986334,23.1163503 216.402224,22.2311898 218.046465,21.5846474 C219.690127,20.937557 221.485056,20.6142857 223.428935,20.6142857 C225.373104,20.6142857 227.160789,20.937557 228.793149,21.5846474 Z M230.989431,33.003793 L230.989431,32.9353033 C230.989431,31.9148073 230.803389,30.9504727 230.431594,30.0420257 C230.058931,29.1352225 229.531232,28.3404684 228.847339,27.659955 C228.163156,26.9788937 227.353206,26.4405649 226.4172,26.0433249 C225.481194,25.6466327 224.460571,25.4471908 223.357069,25.4471908 C222.228355,25.4471908 221.202516,25.6406056 220.278681,26.0257915 C219.354556,26.4123472 218.562573,26.9449229 217.902442,27.6262581 C217.242022,28.3067715 216.726494,29.0952245 216.35441,29.9916173 C215.981746,30.8880101 215.796573,31.8463176 215.796573,32.8676356 L215.796573,32.9353033 C215.796573,33.9566213 215.981746,34.9215038 216.35441,35.828307 C216.726494,36.7362061 217.254482,37.5301383 217.938375,38.2114735 C218.622558,38.8917129 219.426422,39.4314115 220.350837,39.8281037 C221.274383,40.2253438 222.300512,40.4234159 223.428935,40.4234159 C224.532437,40.4234159 225.553061,40.230549 226.489067,39.8445412 C227.425363,39.4590814 228.223142,38.9256838 228.883272,38.2451705 C229.543113,37.5649311 230.058931,36.7759301 230.431594,35.8795373 C230.803389,34.9831445 230.989431,34.0242891 230.989431,33.003793 Z M241.071429,45.2571429 L241.071429,21.6857143 L246.428571,21.6857143 L246.428571,45.2571429 L241.071429,45.2571429 Z M268.334147,22.5774626 C270.002861,23.1726843 271.440079,23.9977547 272.646389,25.0529451 C273.85211,26.1078643 274.783978,27.3487226 275.442286,28.7738936 C276.099712,30.1998778 276.428571,31.7429547 276.428571,33.4711575 C276.428571,35.1329535 276.099712,36.6819935 275.442286,38.1185486 C274.783978,39.5556457 273.85211,40.8013828 272.646389,41.8568442 C271.440079,42.9117635 270.002861,43.7422549 268.334147,44.3483185 C266.664845,44.9543821 264.831407,45.2571429 262.833834,45.2571429 L252.857143,45.2571429 L252.857143,21.6857143 L262.833834,21.6857143 C264.831407,21.6857143 266.664845,21.982783 268.334147,22.5774626 Z M270.54498,33.5389196 L270.54498,33.4711575 C270.54498,32.4390063 270.356136,31.4846459 269.978741,30.6086183 C269.600464,29.733675 269.076877,28.9817875 268.407097,28.353227 C267.736728,27.7246664 266.926933,27.2362377 265.976828,26.8876698 C265.027017,26.539915 263.97896,26.3659021 262.833834,26.3659021 L258.485118,26.3659021 L258.485118,40.5766839 L262.833834,40.5766839 C263.97896,40.5766839 265.027017,40.4083631 265.976828,40.0717213 C266.926933,39.7350795 267.736728,39.2526139 268.407097,38.6232402 C269.076877,37.9957638 269.600464,37.2547182 269.978741,36.4014587 C270.356136,35.5479282 270.54498,34.5941099 270.54498,33.5389196 Z" id="Combined-Shape" fill="#FFFFFF"></path>
                        <path d="M284.9064,25.9728 L288.2328,25.9728 L288.2328,42 L284.9064,42 L284.9064,25.9728 Z M298.2984,42 L298.2984,40.6392 C297.909598,41.1288024 297.405603,41.5031987 296.7864,41.7624 C296.167197,42.0216013 295.454404,42.1512 294.648,42.1512 C293.423994,42.1512 292.452004,41.8164033 291.732,41.1468 C291.011996,40.4771967 290.652,39.6024054 290.652,38.5224 C290.652,37.4279945 291.037196,36.5748031 291.8076,35.9628 C292.578004,35.3507969 293.668793,35.0376001 295.08,35.0232 L298.2768,35.0232 L298.2768,34.8072 C298.2768,34.1879969 298.071602,33.7092017 297.6612,33.3708 C297.250798,33.0323983 296.649604,32.8632 295.8576,32.8632 C294.777595,32.8632 293.625606,33.2015966 292.4016,33.8784 L291.3648,31.5888 C292.286405,31.1279977 293.150396,30.7896011 293.9568,30.5736 C294.763204,30.3575989 295.648795,30.2496 296.6136,30.2496 C298.168808,30.2496 299.374796,30.6167963 300.2316,31.3512 C301.088404,32.0856037 301.524,33.1079934 301.5384,34.4184 L301.56,42 L298.2984,42 Z M297.3696,39.2784 C296.865597,39.6096017 296.268003,39.7752 295.5768,39.7752 C295.015197,39.7752 294.572402,39.6420013 294.2484,39.3756 C293.924398,39.1091987 293.7624,38.7528022 293.7624,38.3064 C293.7624,37.8455977 293.917198,37.510801 294.2268,37.302 C294.536402,37.093199 295.015197,36.9888 295.6632,36.9888 L298.2768,36.9888 L298.2768,38.0256 C298.175999,38.5296025 297.873603,38.9471983 297.3696,39.2784 Z M314.4012,31.0164 C315.229204,31.5132025 315.869998,32.2151955 316.3236,33.1224 C316.777202,34.0296045 317.004,35.0735941 317.004,36.2544 C317.004,37.4208058 316.780802,38.4467956 316.3344,39.3324 C315.887998,40.2180044 315.258004,40.9055976 314.4444,41.3952 C313.630796,41.8848024 312.684005,42.1296 311.604,42.1296 C310.797596,42.1296 310.081203,41.9748015 309.4548,41.6652 C308.828397,41.3555985 308.299202,40.905603 307.8672,40.3152 L307.8672,42 L304.5408,42 L304.5408,25.9728 L307.8672,25.9728 L307.8672,32.0856 C308.284802,31.495197 308.806797,31.0452015 309.4332,30.7356 C310.059603,30.4259985 310.761596,30.2712 311.5392,30.2712 C312.619205,30.2712 313.573196,30.5195975 314.4012,31.0164 Z M312.8352,38.4684 C312.302397,39.066003 311.611204,39.3648 310.7616,39.3648 C309.911996,39.3648 309.217203,39.069603 308.6772,38.4792 C308.137197,37.888797 307.8672,37.1112048 307.8672,36.1464 C307.8672,35.2103953 308.137197,34.443603 308.6772,33.846 C309.217203,33.248397 309.911996,32.9496 310.7616,32.9496 C311.611204,32.9496 312.302397,33.248397 312.8352,33.846 C313.368003,34.443603 313.6344,35.2103953 313.6344,36.1464 C313.6344,37.0968048 313.368003,37.870797 312.8352,38.4684 Z M324.6504,32.9604 C324.031197,32.765999 323.476802,32.6688 322.9872,32.6688 C322.583998,32.6688 322.260001,32.7407993 322.0152,32.8848 C321.770399,33.0288007 321.648,33.2447986 321.648,33.5328 C321.648,33.8496016 321.813598,34.0943991 322.1448,34.2672 C322.476002,34.4400009 323.015996,34.6343989 323.7648,34.8504 C324.585604,35.0952012 325.262397,35.3363988 325.7952,35.574 C326.328003,35.8116012 326.788798,36.1643977 327.1776,36.6324 C327.566402,37.1004023 327.7608,37.7159962 327.7608,38.4792 C327.7608,39.6312058 327.318004,40.5275968 326.4324,41.1684 C325.546796,41.8092032 324.412807,42.1296 323.0304,42.1296 C322.079995,42.1296 321.165604,41.9892014 320.2872,41.7084 C319.408796,41.4275986 318.645603,41.0280026 317.9976,40.5096 L319.0776,38.2632 C319.668003,38.7240023 320.326796,39.0803987 321.054,39.3324 C321.781204,39.5844013 322.468797,39.7104 323.1168,39.7104 C323.563202,39.7104 323.919599,39.6348008 324.186,39.4836 C324.452401,39.3323992 324.5856,39.1056015 324.5856,38.8032 C324.5856,38.4719983 324.416402,38.2128009 324.078,38.0256 C323.739598,37.8383991 323.196004,37.6368011 322.4472,37.4208 C321.655196,37.1903988 320.996403,36.9600012 320.4708,36.7296 C319.945197,36.4991988 319.495202,36.1500023 319.1208,35.682 C318.746398,35.2139977 318.5592,34.6056037 318.5592,33.8568 C318.5592,32.7047942 318.991196,31.8120032 319.8552,31.1784 C320.719204,30.5447968 321.813593,30.228 323.1384,30.228 C323.930404,30.228 324.722396,30.3395989 325.5144,30.5628 C326.306404,30.7860011 327.026397,31.1063979 327.6744,31.524 L326.5296,33.792 C325.895997,33.4319982 325.269603,33.154801 324.6504,32.9604 Z" id="Combined-Shape" fill="#2BB131"></path>
                    </g>
                </g>
            </g>
        </g>
    </g>
</svg>