<?xml version="1.0" encoding="UTF-8"?>
<svg width="175px" height="54px" viewBox="0 0 175 54" version="1.1" xmlns="http://www.w3.org/2000/svg" xmlns:xlink="http://www.w3.org/1999/xlink">
    <!-- Generator: sketchtool 51.2 (57519) - http://www.bohemiancoding.com/sketch -->
    <title>93D5995F-CBDD-4DFD-9F89-F6A6F5F88A3B-421-00001D6D1BFFEC1B</title>
    <desc>Created with sketchtool.</desc>
    <defs></defs>
    <g id="mockups" stroke="none" stroke-width="1" fill="none" fill-rule="evenodd">
        <g id="1_home-[desktop]" transform="translate(-100.000000, -31.000000)" fill="#FFFFFF">
            <g id="Navigation-/-menu">
                <g id="menu" transform="translate(100.000000, 31.000000)">
                    <g id="logo">
                        <g id="Group">
                            <path d="M47.0893862,36.8988978 L44.8083204,38.959942 L39.2424078,38.6542932 L30.754873,41.784945 L14.4687732,39.2393016 L11.4129231,36.2219044 L30.8934159,38.9944475 L38.9174971,36.5864845 L47.0893862,36.8988978 Z M41.3048258,42.1255049 L38.7799868,44.406809 L37.4627884,44.2513144 L30.5206761,47.1288409 L20.6869307,45.3792135 L17.8131382,42.5415831 L30.754873,44.7984293 L38.3496985,41.9920723 L41.3048258,42.1255049 Z M34.393929,48.3698069 L28.8179682,53.4079349 L24.2346919,48.8823319 L30.1520649,50.2823422 L34.393929,48.3698069 Z" id="Combined-Shape"></path>
                            <polygon id="Combined-Shape" points="1.01828638 14.1299206 0 17.396017 3.24464506 28.5427297 6.6852807 31.7966413 30.9080497 35.2424335 38.9651752 33.8449591 49.3347693 34.6221737 52.3044182 32.0762632 57.4673915 23.44177 51.3917447 7.22710695 36.0281211 0 13.8036249 1.29717304 10.6163958 2.87231174"></polygon>
                        </g>
                        <path d="M75.6883174,35.4834467 C75.2550949,35.4292939 74.4202518,35.4022179 73.1837628,35.4022179 L72.1007121,35.4022179 L72.1007121,17.3423484 C72.678342,17.3784503 73.3146279,17.396501 74.0095889,17.396501 C74.7045498,17.396501 75.1964304,17.3603996 75.4852454,17.2881959 L80.0340581,25.0184699 L84.4068751,17.2881959 C84.69569,17.3603996 85.2462352,17.396501 86.0585273,17.396501 C86.8708193,17.396501 87.5657699,17.3784503 88.1433998,17.3423484 L88.1433998,35.4022179 L87.0603491,35.4022179 C85.8238601,35.4022179 84.9890169,35.4292939 84.5557945,35.4834467 L84.5557945,23.3532795 L80.128825,31.2730874 L75.6883174,23.9895718 L75.6883174,35.4834467 Z M92.0965346,17.2205052 C92.818572,16.0923218 93.5721872,15.0995354 94.3574028,14.242116 L97.2681015,16.5300605 C96.8800064,17.0084102 96.5189931,17.4777275 96.1850508,17.9380263 L95.1426146,19.4136828 L92.0965346,17.2205052 Z M95.6570636,33.885947 C95.6570636,34.6621372 95.6751143,35.1675558 95.7112161,35.4022179 L92.2725304,35.4022179 L92.2725304,21.2548689 L95.6570636,21.2548689 L95.6570636,33.885947 Z M103.035346,33.6693369 C103.035346,34.463578 103.071447,35.0411992 103.143651,35.4022179 L99.7455798,35.4022179 L99.7455798,21.2548689 L103.035346,21.2548689 L103.035346,22.4597627 C104.226708,21.4759868 105.49928,20.9841062 106.8531,20.9841062 C108.333276,20.9841062 109.515595,21.4872685 110.400091,22.4936081 C111.284586,23.4999477 111.726828,24.8244151 111.726828,26.4670501 L111.726828,31.8552271 C111.726828,33.380531 111.749391,34.2966022 111.794518,34.6034681 C111.839646,34.910334 111.900567,35.1088913 111.977283,35.1991459 C112.053999,35.2894006 112.119433,35.3706286 112.173586,35.4428323 L112.14651,35.4969849 C111.415447,35.4338066 110.882952,35.4022179 110.54901,35.4022179 L109.601341,35.4022179 C109.312526,35.4022179 108.924436,35.4157559 108.437061,35.4428323 L108.437061,28.0645498 C108.437061,25.4200879 107.633807,24.0978768 106.027274,24.0978768 C104.835912,24.0978768 103.838613,24.7115994 103.035346,25.9390629 L103.035346,33.6693369 Z M120.445385,35.6052899 C117.900203,35.6052899 115.98232,35.1404853 114.691679,34.2108622 C114.70973,33.9400982 114.736806,33.6332369 114.772907,33.2902692 L114.894751,32.3155236 C114.966954,31.6747154 115.012081,31.2753445 115.030132,31.1173988 C115.048183,30.9594531 115.061721,30.8737125 115.070746,30.8601743 C115.079772,30.8466361 115.151975,30.9188387 115.287357,31.0767844 C115.422739,31.2347301 115.679961,31.4265184 116.05903,31.6521551 C116.4381,31.8777918 116.875828,32.0763491 117.372229,32.2478329 C118.44626,32.6178771 119.565401,32.8028964 120.729686,32.8028964 C122.291092,32.8028964 123.071783,32.2839398 123.071783,31.2460111 C123.071783,30.9120688 122.922865,30.6638722 122.625025,30.5014138 C122.092522,30.2306498 121.309575,30.0253235 120.276159,29.8854287 C119.242743,29.745534 118.396618,29.5402077 117.737759,29.2694437 C117.0789,28.9986796 116.541892,28.6737677 116.126721,28.2946981 C115.359556,27.5816862 114.975979,26.6475643 114.975979,25.4923045 C114.975979,24.0843317 115.517499,22.9787285 116.600555,22.1754619 C117.674586,21.3812208 119.159253,20.9841062 121.054601,20.9841062 C122.931898,20.9841062 124.533895,21.5166008 125.860638,22.5816059 C125.79746,22.8162681 125.72977,23.0419014 125.657566,23.2585126 C125.449981,23.8541934 125.29655,24.2828967 125.19727,24.5446352 L124.885893,25.3433851 C124.867842,25.4155888 124.854304,25.4516901 124.845278,25.4516901 C124.827228,25.4516901 124.755025,25.3569242 124.628668,25.1673893 C124.060064,24.5085302 123.175581,24.0753143 121.975194,23.8677286 C121.60515,23.7955248 121.226086,23.7594235 120.837991,23.7594235 C119.195356,23.7594235 118.374051,24.2558168 118.374051,25.2486181 C118.374051,25.5915859 118.545532,25.8533205 118.8885,26.0338299 C119.529308,26.3767976 120.407022,26.6295069 121.521667,26.7919653 C122.636312,26.9544237 123.482437,27.173288 124.060067,27.4485648 C124.637697,27.7238415 125.102501,28.0555225 125.454494,28.4436175 C126.104328,29.147604 126.42924,30.0817258 126.42924,31.2460111 C126.42924,32.518602 125.919309,33.5520024 124.899431,34.3462436 C123.834426,35.185612 122.349759,35.6052899 120.445385,35.6052899 Z M133.090002,33.6151844 C133.090002,34.3913745 133.12159,34.9870464 133.184768,35.4022179 L129.773159,35.4022179 L129.773159,16.0426877 L133.090002,16.0426877 L133.090002,27.9020922 L139.276928,21.2548689 L143.297754,21.2548689 L137.963729,26.8731941 L141.009809,31.029401 C141.668668,32.0763551 142.165062,32.8435083 142.499004,33.3308836 L143.392521,34.5899299 C143.663285,34.9419232 143.888918,35.2126831 144.069427,35.4022179 L141.930402,35.4022179 C141.136161,35.4022179 140.454749,35.4699079 139.886144,35.6052899 L135.662247,29.4319013 L133.090002,32.1666041 L133.090002,33.6151844 Z M145.206631,35.4022179 C145.28786,34.8516644 145.328474,34.3642965 145.328474,33.9400996 C145.328474,33.5159026 145.326217,33.2248357 145.321705,33.06689 C145.317192,32.9089443 145.310423,32.7532573 145.301398,32.5998244 C145.292372,32.4463914 145.283347,32.3019861 145.274321,32.1666041 L145.233707,31.8281508 L149.159765,31.8281508 C149.132689,32.1711186 149.119151,32.4509038 149.119151,32.6675151 L149.092075,33.2361166 L149.092075,34.2040932 C149.092075,34.6779302 149.114638,35.0773011 149.159765,35.4022179 L145.206631,35.4022179 Z M155.820527,33.885947 C155.820527,34.6621372 155.838578,35.1675558 155.874679,35.4022179 L152.503684,35.4022179 L152.503684,21.2548689 L155.820527,21.2548689 L155.820527,22.2973051 C156.587692,21.4218348 157.393202,20.9841062 158.237084,20.9841062 C159.080965,20.9841062 159.746583,21.0878975 160.233958,21.2954833 L159.990272,24.9372411 L159.936119,24.9778555 C159.620228,24.4182765 158.965891,24.1384912 157.97309,24.1384912 C157.59402,24.1384912 157.208188,24.2671022 156.81558,24.524328 C156.422972,24.7815538 156.091291,25.1222601 155.820527,25.5464571 L155.820527,33.885947 Z M165.270144,21.7693179 C166.280996,21.2458409 167.314397,20.9841062 168.370376,20.9841062 C169.426356,20.9841062 170.335658,21.1488185 171.09831,21.4782481 C171.860962,21.8076776 172.531093,22.2792512 173.108723,22.892983 C174.363263,24.2558285 174.990523,25.9796669 174.990523,28.0645498 C174.990523,30.347993 174.309111,32.1891607 172.946265,33.5881081 C171.637572,34.9329027 170.0085,35.6052899 168.058999,35.6052899 C166.34416,35.6052899 164.931696,35.158536 163.821564,34.2650148 C162.576049,33.2541624 161.953301,31.8597487 161.953301,30.0817316 L161.953301,15.257476 L165.270144,15.257476 L165.270144,21.7693179 Z M165.270144,30.0411172 C165.270144,31.6295995 166.258418,32.4238287 168.234995,32.4238287 C169.20072,32.4238287 170.013,31.9996381 170.671859,31.1512442 C171.339743,30.2847993 171.673681,29.2062722 171.673681,27.9156304 C171.673681,26.6159631 171.321693,25.6367146 170.617706,24.9778555 C169.985924,24.3912001 169.137542,24.0978768 168.072537,24.0978768 C167.431729,24.0978768 166.723241,24.3144848 165.94705,24.7477072 C165.703363,24.8830892 165.47773,25.0320072 165.270144,25.1944656 L165.270144,30.0411172 Z" id="Minsk.rb"></path>
                    </g>
                </g>
            </g>
        </g>
    </g>
</svg>